<?xml version="1.0" encoding="utf-8"?>
<!-- Generator: Adobe Illustrator 22.0.1, SVG Export Plug-In . SVG Version: 6.00 Build 0)  -->
<svg version="1.1" id="Layer_1" xmlns="http://www.w3.org/2000/svg" xmlns:xlink="http://www.w3.org/1999/xlink" x="0px" y="0px"
	 viewBox="0 0 36.4 41.2" style="enable-background:new 0 0 36.4 41.2;" xml:space="preserve">
<style type="text/css">
	.st0{fill:#95BB3B;}
	.st1{fill:#FFFFFF;}
</style>
<path class="st0" d="M18.8,0C16.7,0,15,1.7,15,3.8s1.7,3.8,3.8,3.8s3.8-1.7,3.8-3.8S20.9,0,18.8,0z M20,5.3
	c-0.2,0.2-0.5,0.3-0.8,0.4V6c0,0.1,0,0.2-0.1,0.2c-0.1,0.1-0.1,0.1-0.2,0.1c-0.1,0-0.2,0-0.2-0.1c-0.1-0.1-0.1-0.1-0.1-0.2V5.7
	c-0.2,0-0.4-0.1-0.6-0.1c-0.2-0.1-0.4-0.2-0.5-0.3c0,0-0.1-0.1-0.1-0.1c0,0,0-0.1,0-0.2c0-0.1,0-0.1,0.1-0.2c0-0.1,0.1-0.1,0.2-0.1
	c0,0,0.1,0,0.1,0c0,0,0.1,0,0.1,0.1C17.9,4.9,18.1,5,18.3,5c0.2,0.1,0.3,0.1,0.5,0.1c0.3,0,0.4,0,0.6-0.1c0.1-0.1,0.2-0.2,0.2-0.4
	c0-0.1,0-0.2-0.1-0.3c-0.1-0.1-0.2-0.1-0.3-0.2c-0.1,0-0.3-0.1-0.5-0.1c-0.3-0.1-0.5-0.1-0.7-0.2c-0.2-0.1-0.3-0.2-0.5-0.3
	c-0.1-0.2-0.2-0.4-0.2-0.6c0-0.3,0.1-0.6,0.3-0.8c0.2-0.2,0.5-0.3,0.9-0.4V1.3c0-0.1,0-0.2,0.1-0.2C18.7,1,18.8,1,18.8,1
	c0.1,0,0.2,0,0.2,0.1c0.1,0.1,0.1,0.1,0.1,0.2v0.3c0.4,0,0.7,0.2,1,0.4c0.1,0.1,0.1,0.2,0.1,0.3c0,0.1,0,0.1-0.1,0.2
	c0,0.1-0.1,0.1-0.2,0.1c0,0-0.1,0-0.1,0c0,0-0.1,0-0.1-0.1c-0.2-0.1-0.3-0.2-0.4-0.2c-0.1-0.1-0.3-0.1-0.5-0.1
	c-0.2,0-0.4,0.1-0.6,0.2c-0.1,0.1-0.2,0.2-0.2,0.4c0,0.1,0,0.2,0.1,0.3c0.1,0.1,0.2,0.1,0.3,0.2c0.1,0,0.3,0.1,0.5,0.1
	c0.3,0.1,0.5,0.1,0.7,0.2c0.2,0.1,0.3,0.2,0.4,0.3c0.1,0.1,0.2,0.3,0.2,0.6C20.3,4.8,20.2,5.1,20,5.3z"/>
<path class="st0" d="M33.7,27.1c-0.4,0-0.8,0.1-1.1,0.2c-0.5-0.6-1.3-1.1-2.2-1.1c-0.5,0-0.9,0.1-1.2,0.3l0,0L28,27.3
	c-0.5-0.6-1.3-1-2.1-1c-0.5,0-0.9,0.1-1.2,0.3l0,0l-4.3,2.6c-1-0.3-2-0.6-3.1-0.9c-1.1-0.3-2.1-0.6-3-0.8c-0.4-0.1-0.8-0.2-1.1-0.3
	c-0.2,0-0.3-0.1-0.4-0.1c-0.1,0-0.2,0-0.3,0c-0.1,0-0.2,0-0.3,0c-0.3,0-0.8,0.1-1.3,0.3c-1.1,0.3-2.5,0.6-3.2,0.8V27
	c0-0.9-0.7-1.6-1.6-1.6H1.6C0.7,25.4,0,26.1,0,27v12.6c0,0.9,0.7,1.6,1.6,1.6h4.5c0.9,0,1.6-0.7,1.6-1.6v-1c1,0.2,3.1,0.7,5.4,1.1
	c1.5,0.3,3.1,0.6,4.4,0.9c0.7,0.1,1.2,0.2,1.7,0.3c0.5,0.1,0.8,0.1,1.1,0.1c0.2,0,0.4,0,0.6-0.1c0.4-0.1,0.9-0.3,1.4-0.6
	c1.8-0.9,4.5-2.6,7-4.2c2.5-1.7,4.8-3.3,6-4.1c0.7-0.5,1.1-1.3,1.1-2.2C36.4,28.3,35.2,27.1,33.7,27.1z M6.5,39.6
	c0,0.2-0.2,0.4-0.4,0.4H1.6c-0.2,0-0.4-0.2-0.4-0.4V27c0-0.2,0.2-0.4,0.4-0.4h4.5c0.2,0,0.4,0.2,0.4,0.4V39.6z M34.6,31
	c-1.4,1-4.5,3.2-7.6,5.2c-1.5,1-3,1.9-4.2,2.6c-0.6,0.3-1.2,0.6-1.6,0.8c-0.2,0.1-0.4,0.2-0.6,0.2c-0.2,0-0.3,0.1-0.3,0.1
	c-0.1,0-0.5,0-0.9-0.1c-1.6-0.2-4.6-0.8-7.2-1.4c-1.3-0.3-2.5-0.5-3.3-0.7c-0.5-0.1-0.9-0.2-1.1-0.2v-7.8c0.1,0,0.3-0.1,0.5-0.1
	c0.6-0.2,1.6-0.4,2.5-0.7c0.4-0.1,0.9-0.2,1.2-0.3c0.2,0,0.3-0.1,0.4-0.1c0.1,0,0.2,0,0.2,0c0,0,0.1,0,0.2,0c0.3,0.1,1,0.2,1.9,0.4
	c2.5,0.7,6.5,1.9,8.1,2.3c0.6,0.2,1.1,0.4,1.4,0.7c0.2,0.2,0.3,0.3,0.4,0.5c0.1,0.2,0.1,0.4,0.1,0.6c0,0.5-0.2,0.9-0.5,1.2
	c-0.3,0.3-0.7,0.5-1.2,0.5l-1.6-0.2l-5.4-0.7c-0.3,0-0.6,0.2-0.7,0.5c0,0.3,0.2,0.6,0.5,0.7l5.4,0.7l1.7,0.2h0
	c1.6,0,2.9-1.3,2.9-2.9c0-0.4-0.1-0.8-0.3-1.1c-0.2-0.5-0.6-0.9-1.1-1.2C24,30.4,23.5,30.2,23,30c-0.3-0.1-0.6-0.2-1-0.3l3.3-2
	c0.2-0.1,0.4-0.2,0.7-0.2c0.4,0,0.8,0.2,1,0.4l-1.6,1c-0.3,0.2-0.4,0.5-0.2,0.8c0.2,0.3,0.5,0.4,0.8,0.2l3.8-2.3
	c0.2-0.1,0.4-0.2,0.7-0.2c0.4,0,0.8,0.2,1.1,0.5l-4.4,2.6c-0.3,0.2-0.4,0.5-0.2,0.8c0.2,0.3,0.5,0.4,0.8,0.2l4.8-2.8
	c0,0,0.1,0,0.1,0c0.1,0,0.2-0.1,0.2-0.2l0.1-0.1c0.2-0.1,0.4-0.2,0.7-0.2c0.4,0,0.8,0.2,1.1,0.4c0.3,0.3,0.4,0.7,0.4,1.1
	C35.2,30.3,34.9,30.8,34.6,31z"/>
<g>
	<path class="st0" d="M12.7,15.2c-3.1,0-5.6-2.5-5.6-5.6c0-3.1,2.5-5.6,5.6-5.6s5.6,2.5,5.6,5.6C18.2,12.7,15.8,15.2,12.7,15.2z
		 M10.9,11.3c-0.1,0.1-0.1,0.1-0.1,0.2c0,0.1,0,0.1,0,0.1c0.2,0.2,0.5,0.3,0.7,0.4c0.3,0.1,0.5,0.2,0.8,0.2l0.2,0v0.7
		c0,0.1,0,0.1,0,0.1c0,0,0,0,0.1,0c0.1,0,0.1,0,0.1,0c0,0,0,0,0-0.1v-0.7l0.2,0c0.4-0.1,0.8-0.2,1-0.5c0.2-0.2,0.4-0.5,0.4-0.9
		c0-0.3-0.1-0.5-0.2-0.7c-0.1-0.2-0.3-0.3-0.5-0.4c-0.2-0.1-0.5-0.2-0.9-0.3c-0.3-0.1-0.5-0.1-0.7-0.2C12,9.1,11.8,9,11.7,8.9
		c-0.2-0.2-0.2-0.4-0.2-0.6c0-0.3,0.1-0.6,0.4-0.8c0.2-0.2,0.6-0.3,0.9-0.3c0.3,0,0.6,0,0.8,0.1c0.2,0.1,0.4,0.2,0.7,0.4
		c0.1,0,0.1,0.1,0.1,0.1c0.1-0.1,0.1-0.1,0.1-0.1c0-0.1,0-0.1-0.1-0.2C14,7.2,13.6,7,13.1,6.9l-0.2,0V6.2c0-0.1,0-0.1,0-0.1
		c0,0,0,0-0.1,0s-0.1,0-0.1,0c0,0,0,0,0,0.1v0.7l-0.2,0c-0.4,0.1-0.8,0.2-1.1,0.5C11.1,7.7,11,8,11,8.3C11,8.6,11,8.9,11.2,9
		c0.2,0.2,0.3,0.3,0.5,0.4c0.2,0.1,0.6,0.2,0.9,0.3c0.3,0.1,0.5,0.1,0.7,0.2c0.2,0.1,0.4,0.2,0.5,0.3c0.2,0.1,0.2,0.3,0.2,0.6
		c0,0.3-0.1,0.6-0.4,0.8c-0.2,0.2-0.6,0.3-1,0.3c-0.3,0-0.6,0-0.8-0.1c-0.3-0.1-0.5-0.2-0.8-0.4C11,11.3,11,11.3,10.9,11.3
		L10.9,11.3z"/>
	<path class="st1" d="M12.7,4.4c2.9,0,5.3,2.4,5.3,5.3s-2.4,5.3-5.3,5.3s-5.3-2.4-5.3-5.3S9.8,4.4,12.7,4.4 M12.7,11.6
		c-0.3,0-0.5,0-0.7-0.1c-0.2-0.1-0.5-0.2-0.7-0.3c-0.1,0-0.1-0.1-0.2-0.1c0,0-0.1,0-0.1,0c-0.1,0-0.2,0-0.2,0.1
		c-0.1,0.1-0.1,0.2-0.1,0.3c0,0.1,0,0.2,0,0.2c0,0.1,0.1,0.1,0.1,0.2c0.2,0.2,0.5,0.3,0.7,0.4c0.3,0.1,0.6,0.2,0.9,0.2v0.5
		c0,0.1,0,0.2,0.1,0.3c0.1,0.1,0.2,0.1,0.3,0.1c0.1,0,0.2,0,0.3-0.1c0.1-0.1,0.1-0.2,0.1-0.3v-0.5c0.5-0.1,0.9-0.3,1.2-0.5
		c0.3-0.3,0.4-0.6,0.4-1.1c0-0.3-0.1-0.6-0.3-0.8c-0.2-0.2-0.4-0.4-0.6-0.5c-0.2-0.1-0.6-0.2-0.9-0.3C12.7,9.1,12.5,9,12.3,9
		c-0.2-0.1-0.3-0.1-0.4-0.2c-0.1-0.1-0.2-0.3-0.2-0.4c0-0.3,0.1-0.5,0.3-0.6c0.2-0.1,0.5-0.2,0.8-0.2c0.3,0,0.5,0,0.7,0.1
		c0.2,0.1,0.4,0.2,0.6,0.3C14.2,8,14.2,8,14.3,8c0,0,0.1,0,0.1,0c0.1,0,0.2,0,0.2-0.1c0.1-0.1,0.1-0.2,0.1-0.3
		c0-0.2-0.1-0.3-0.2-0.4c-0.4-0.3-0.8-0.5-1.4-0.6V6.2c0-0.1,0-0.2-0.1-0.3c-0.1-0.1-0.2-0.1-0.3-0.1c-0.1,0-0.2,0-0.3,0.1
		c-0.1,0.1-0.1,0.2-0.1,0.3v0.5c-0.5,0.1-0.9,0.3-1.2,0.6c-0.3,0.3-0.5,0.7-0.5,1.1c0,0.4,0.1,0.6,0.3,0.9c0.2,0.2,0.4,0.4,0.6,0.5
		c0.2,0.1,0.6,0.2,1,0.3c0.3,0.1,0.5,0.1,0.7,0.2c0.2,0.1,0.3,0.1,0.4,0.2c0.1,0.1,0.2,0.2,0.2,0.4c0,0.3-0.1,0.5-0.3,0.6
		C13.3,11.5,13,11.6,12.7,11.6 M12.7,3.8c-3.2,0-5.8,2.6-5.8,5.8s2.6,5.8,5.8,5.8s5.8-2.6,5.8-5.8S15.9,3.8,12.7,3.8L12.7,3.8z"/>
</g>
<g>
	<path class="st0" d="M20.8,23.7c-3.6,0-6.6-2.9-6.6-6.6s2.9-6.6,6.6-6.6s6.6,2.9,6.6,6.6S24.4,23.7,20.8,23.7z M18.7,19
		C18.7,19,18.6,19.1,18.7,19c-0.1,0.1-0.1,0.2-0.1,0.2c0,0.1,0,0.1,0,0.1s0,0.1,0.1,0.1c0.2,0.2,0.5,0.3,0.8,0.4
		c0.3,0.1,0.6,0.2,1,0.2l0.2,0V21c0,0.1,0,0.1,0.1,0.2c0,0,0.1,0.1,0.2,0.1c0.1,0,0.1,0,0.2-0.1c0,0,0.1-0.1,0.1-0.2v-0.8l0.2,0
		c0.5-0.1,1-0.3,1.3-0.6c0.3-0.3,0.4-0.7,0.4-1.1c0-0.3-0.1-0.6-0.2-0.8c-0.2-0.2-0.4-0.4-0.6-0.5c-0.3-0.1-0.6-0.2-1.1-0.3
		c-0.4-0.1-0.6-0.2-0.8-0.2c-0.2-0.1-0.4-0.2-0.6-0.4c-0.2-0.2-0.3-0.4-0.3-0.7c0-0.4,0.2-0.7,0.5-0.9c0.3-0.2,0.6-0.3,1.1-0.3
		c0.3,0,0.7,0.1,0.9,0.2c0.2,0.1,0.5,0.2,0.8,0.4c0.1,0.1,0.1,0.1,0.1,0.1l0.4,0.1L22.9,15c0-0.1,0.1-0.1,0.1-0.2
		c0-0.1,0-0.2-0.1-0.2c-0.4-0.4-0.9-0.6-1.5-0.6l-0.2,0v-0.8c0-0.1,0-0.1-0.1-0.2c0,0-0.1-0.1-0.2-0.1c-0.1,0-0.1,0-0.2,0.1
		c0,0-0.1,0.1-0.1,0.2v0.8l-0.2,0c-0.5,0.1-1,0.3-1.3,0.6c-0.3,0.3-0.5,0.7-0.5,1.1c0,0.4,0.1,0.6,0.3,0.8c0.2,0.2,0.4,0.4,0.7,0.5
		c0.3,0.1,0.7,0.2,1.1,0.4c0.4,0.1,0.6,0.2,0.8,0.2c0.2,0.1,0.4,0.2,0.6,0.3c0.2,0.2,0.3,0.4,0.3,0.6c0,0.4-0.2,0.7-0.5,0.9
		c-0.3,0.2-0.7,0.3-1.1,0.3c-0.3,0-0.7,0-1-0.1c-0.3-0.1-0.6-0.2-0.9-0.4C18.9,19.1,18.8,19.1,18.7,19L18.7,19z"/>
	<path class="st1" d="M20.8,10.9c3.5,0,6.3,2.8,6.3,6.3s-2.8,6.3-6.3,6.3s-6.3-2.8-6.3-6.3S17.3,10.9,20.8,10.9 M20.8,19.5
		c-0.3,0-0.6,0-0.9-0.1c-0.3-0.1-0.6-0.2-0.9-0.4c-0.1-0.1-0.2-0.1-0.2-0.1c-0.1,0-0.1,0-0.2,0c-0.1,0-0.2,0.1-0.3,0.2
		c-0.1,0.1-0.1,0.2-0.1,0.3c0,0.1,0,0.2,0,0.3c0,0.1,0.1,0.1,0.2,0.2c0.2,0.2,0.5,0.4,0.9,0.5c0.3,0.1,0.7,0.2,1,0.2V21
		c0,0.1,0,0.3,0.1,0.4c0.1,0.1,0.2,0.1,0.3,0.1c0.1,0,0.3,0,0.3-0.1c0.1-0.1,0.1-0.2,0.1-0.4v-0.6c0.6-0.1,1.1-0.3,1.4-0.7
		c0.3-0.3,0.5-0.8,0.5-1.3c0-0.4-0.1-0.7-0.3-1c-0.2-0.2-0.5-0.4-0.7-0.5c-0.3-0.1-0.7-0.2-1.1-0.3c-0.3-0.1-0.6-0.2-0.8-0.2
		c-0.2-0.1-0.4-0.2-0.5-0.3c-0.1-0.1-0.2-0.3-0.2-0.5c0-0.3,0.1-0.5,0.3-0.7c0.2-0.2,0.5-0.3,0.9-0.3c0.3,0,0.6,0,0.8,0.1
		c0.2,0.1,0.5,0.2,0.7,0.4c0.1,0.1,0.2,0.1,0.2,0.1c0.1,0,0.1,0,0.2,0c0.1,0,0.2-0.1,0.3-0.2c0.1-0.1,0.1-0.2,0.1-0.3
		c0-0.2-0.1-0.3-0.2-0.4c-0.5-0.4-1-0.6-1.6-0.7v-0.6c0-0.1,0-0.3-0.1-0.4c-0.1-0.1-0.2-0.1-0.3-0.1c-0.1,0-0.3,0-0.3,0.1
		c-0.1,0.1-0.1,0.2-0.1,0.4v0.6c-0.6,0.1-1.1,0.3-1.4,0.7c-0.4,0.4-0.5,0.8-0.5,1.3c0,0.4,0.1,0.8,0.3,1c0.2,0.3,0.5,0.4,0.8,0.6
		c0.3,0.1,0.7,0.2,1.2,0.4c0.3,0.1,0.6,0.2,0.8,0.2c0.2,0.1,0.3,0.2,0.5,0.3c0.1,0.1,0.2,0.3,0.2,0.4c0,0.3-0.1,0.5-0.3,0.7
		C21.5,19.4,21.2,19.5,20.8,19.5 M20.8,10.4c-3.8,0-6.8,3.1-6.8,6.8s3.1,6.8,6.8,6.8s6.8-3.1,6.8-6.8S24.6,10.4,20.8,10.4L20.8,10.4
		z M22.2,19.6c0.3-0.3,0.5-0.6,0.5-1.1c0-0.3-0.1-0.6-0.4-0.8c-0.2-0.2-0.4-0.3-0.7-0.4c-0.2-0.1-0.5-0.2-0.8-0.2
		c-0.4-0.1-0.8-0.2-1.1-0.3c-0.2-0.1-0.4-0.2-0.6-0.4C19,16.1,19,15.9,19,15.6c0-0.4,0.1-0.7,0.4-0.9c0.1-0.1,0.1-0.1,0.2-0.2
		c-0.3,0.3-0.4,0.6-0.4,1c0,0.3,0.1,0.7,0.4,0.9c0.2,0.2,0.4,0.3,0.7,0.4c0.2,0.1,0.5,0.2,0.9,0.2c0.4,0.1,0.8,0.2,1.1,0.3
		c0.2,0.1,0.4,0.2,0.5,0.4c0.1,0.1,0.2,0.4,0.2,0.6c0,0.4-0.1,0.7-0.4,0.9C22.4,19.5,22.3,19.5,22.2,19.6L22.2,19.6z"/>
</g>
</svg>
