<?xml version="1.0" encoding="utf-8"?>
<!-- Generator: Adobe Illustrator 22.0.1, SVG Export Plug-In . SVG Version: 6.00 Build 0)  -->
<svg version="1.1" id="Layer_1" xmlns="http://www.w3.org/2000/svg" xmlns:xlink="http://www.w3.org/1999/xlink" x="0px" y="0px"
	 viewBox="0 0 48 53.6" style="enable-background:new 0 0 48 53.6;" xml:space="preserve">
<style type="text/css">
	.st0{fill:#23A2C7;}
	.st1{fill:#FFFFFF;}
</style>
<g>
	<path class="st0" d="M23.9,53.5c-0.8,0-1.6-0.3-2.2-0.9L9.9,40.8c-0.7-0.7-1.3-1.5-1.6-2.5l-0.1-0.1c-0.3-0.7-0.7-1.3-1.2-1.8
		l-1.5-1.5L5,35.1c-0.2,0.2-0.5,0.3-0.7,0.3c-0.3,0-0.5-0.1-0.7-0.3l-3.2-3.2c-0.4-0.4-0.4-1,0-1.4l12.2-12.2
		c0.2-0.2,0.4-0.3,0.7-0.3c0.3,0,0.5,0.1,0.7,0.3l3.2,3.2c0.2,0.2,0.3,0.4,0.3,0.7s-0.1,0.5-0.3,0.7l-0.4,0.4l0.7,0.7
		c0.5-0.3,1-0.5,1.6-0.5l8.4,0c0.9-0.1,1.6-0.4,2.1-1l1.5-1.5l-0.4-0.5c-0.2-0.2-0.3-0.4-0.3-0.7c0-0.3,0.1-0.5,0.3-0.7l3.2-3.2
		c0.2-0.2,0.4-0.3,0.7-0.3c0.3,0,0.5,0.1,0.7,0.3l12.2,12.2c0.2,0.2,0.3,0.4,0.3,0.7c0,0.3-0.1,0.5-0.3,0.7l-3.2,3.2
		c-0.2,0.2-0.4,0.3-0.7,0.3c-0.3,0-0.5-0.1-0.7-0.3l-0.3-0.3L41,34c-0.5,0.5-0.9,1.1-1.2,1.8L39.7,36c-0.4,1-1.3,2.1-1.8,2.7l-2,2
		l0.1,0.1c1.2,1.2,1.2,3.1,0,4.3c-0.3,0.3-0.6,0.5-0.9,0.6c0.6,1.2,0.4,2.7-0.6,3.7c-0.6,0.6-1.3,0.9-2.2,0.9c-0.5,0-1-0.1-1.5-0.4
		c-0.2,0.4-0.4,0.7-0.7,1c-0.6,0.6-1.3,0.9-2.2,0.9c-0.4,0-0.8-0.1-1.2-0.3c-0.2,0.4-0.4,0.7-0.7,1C25.5,53.2,24.7,53.5,23.9,53.5z
		 M6.9,33.3l1.5,1.6c0.7,0.7,1.3,1.5,1.6,2.5l0.1,0.1c0.3,0.7,0.7,1.3,1.2,1.8l11.9,11.9c0.2,0.2,0.5,0.3,0.7,0.3
		c0.3,0,0.5-0.1,0.7-0.3c0.3-0.3,0.4-0.9,0.2-1.3l-6.5-6.5C18.1,43.2,18,43,18,42.7c0-0.3,0.1-0.5,0.3-0.7c0.2-0.2,0.4-0.3,0.7-0.3
		s0.5,0.1,0.7,0.3l7.6,7.6c0.2,0.2,0.5,0.3,0.7,0.3c0.3,0,0.5-0.1,0.7-0.3c0.3-0.3,0.4-0.9,0.2-1.3L22,41.3c-0.4-0.4-0.4-1,0-1.4
		c0.2-0.2,0.4-0.3,0.7-0.3c0.3,0,0.5,0.1,0.7,0.3l8.2,8.1c0.2,0.2,0.5,0.3,0.7,0.3c0.3,0,0.5-0.1,0.7-0.3c0.4-0.4,0.4-0.9,0.1-1.3
		c-0.1-0.1-7.6-7.6-7.7-7.7c-0.4-0.4-0.4-1,0-1.4c0.2-0.2,0.4-0.3,0.7-0.3c0.3,0,0.5,0.1,0.7,0.3c0,0,6.1,6.1,6.2,6.1
		c0.2,0.2,0.5,0.3,0.7,0.3c0.3,0,0.5-0.1,0.7-0.3c0.4-0.4,0.4-1.1,0-1.5L22.4,30.1l-2,0c-2.1,0-3.9-1.8-4-3.9c0-0.1,0-0.2,0-0.3
		l-1.1-1.1L6.9,33.3z M30.7,31.3c0.2,0,0.4,0.1,0.5,0.3l0.4,0.8c0.1,0.2,0.1,0.3,0,0.5c-0.1,0.2-0.2,0.3-0.4,0.3
		c-0.5,0.2-1.3,0.3-2.4,0.4l5.6,5.7l2.1-2c0.6-0.6,1.2-1.4,1.4-2l0.1-0.2c0.4-0.9,0.9-1.8,1.6-2.5l1.5-1.6l-8.5-8.6L31.1,24
		c-0.9,0.9-2,1.4-3.3,1.6c0,0-0.1,0-0.1,0l-8.5,0c-0.3,0-0.6,0.3-0.6,0.6c0,1.1,0.9,1.9,1.9,1.9l2.4,0c0.3,0,0.5,0.1,0.7,0.3
		l2.9,2.9c0.7,0.2,1.4,0.2,2.1,0.2c0.9,0,1.6-0.1,2-0.2C30.6,31.3,30.6,31.3,30.7,31.3z M2.6,31.2L4.3,33l10.8-10.7l-1.8-1.8
		L2.6,31.2z M32.9,19.9l10.7,10.8l1.8-1.7L34.7,18.1L32.9,19.9z"/>
	<path class="st1" d="M34.7,15.7c0.3,0,0.5,0.1,0.7,0.3l12.2,12.2c0.2,0.2,0.3,0.4,0.3,0.7c0,0.3-0.1,0.5-0.3,0.7l-3.2,3.2
		c-0.2,0.2-0.4,0.3-0.7,0.3S43.2,33,43,32.8l-0.3-0.3l-0.1-0.1l-0.1,0.1L41,34c-0.5,0.5-0.9,1.1-1.2,1.8L39.7,36
		c-0.4,1-1.2,2.1-1.8,2.7l-2,2l-0.1,0.1l0.1,0.1l0.1,0.1c1.2,1.2,1.2,3.1,0,4.3c-0.3,0.3-0.6,0.5-0.9,0.6l-0.1,0l0,0.1
		c0.6,1.2,0.4,2.6-0.5,3.6c-0.6,0.6-1.3,0.9-2.1,0.9c-0.5,0-1-0.1-1.4-0.4l-0.1,0l0,0.1c-0.2,0.3-0.4,0.7-0.6,0.9
		c-0.6,0.6-1.3,0.9-2.1,0.9c-0.4,0-0.8-0.1-1.2-0.3l-0.1,0l0,0.1c-0.2,0.4-0.4,0.7-0.7,1c-0.6,0.6-1.3,0.9-2.1,0.9s-1.6-0.3-2.1-0.9
		L9.9,40.7c-0.7-0.7-1.3-1.5-1.6-2.5l-0.1-0.1c-0.3-0.7-0.7-1.3-1.2-1.8l-1.6-1.6l-0.1-0.1l-0.1,0.1L5,35.1
		c-0.2,0.2-0.4,0.3-0.7,0.3s-0.5-0.1-0.7-0.3l-3.2-3.2c-0.4-0.4-0.4-1,0-1.4l12.2-12.2c0.2-0.2,0.4-0.3,0.7-0.3
		c0.3,0,0.5,0.1,0.7,0.3l3.2,3.2c0.2,0.2,0.3,0.4,0.3,0.7s-0.1,0.5-0.3,0.7l-0.4,0.4l-0.1,0.1l0.1,0.1l0.7,0.7l0,0l0.1,0
		c0.4-0.3,1-0.5,1.5-0.5l8.4,0c0.9-0.1,1.6-0.5,2.1-1l1.5-1.5l0.1-0.1L31.2,21l-0.4-0.4c-0.2-0.2-0.3-0.4-0.3-0.7s0.1-0.5,0.3-0.7
		L34,16C34.1,15.8,34.4,15.7,34.7,15.7 M43.7,30.7L43.7,30.7l1.8-1.8l0.1-0.1l-0.1-0.1L34.7,18.1L34.7,18l-0.1,0.1l-1.7,1.7
		l-0.1,0.1l0.1,0.1L43.7,30.7L43.7,30.7 M4.3,33L4.3,33l10.8-10.8l0.1-0.1l-0.1-0.1l-1.7-1.7l-0.1-0.1l-0.1,0.1L2.5,31.1l-0.1,0.1
		l0.1,0.1L4.3,33L4.3,33 M22.8,28.2L22.8,28.2c0.3,0,0.5,0.1,0.7,0.3l0.1,0l2.8,2.8l0,0l0,0c0.7,0.1,1.4,0.2,2.1,0.2
		c0.9,0,1.6-0.1,2-0.2c0,0,0.1,0,0.1,0c0.2,0,0.4,0.1,0.5,0.3l0.4,0.8c0.1,0.1,0.1,0.3,0,0.5c-0.1,0.2-0.2,0.3-0.3,0.3
		c-0.5,0.2-1.3,0.3-2.4,0.4l-0.2,0l0.1,0.1l5.6,5.6l0.1,0.1l0.1-0.1l2-2c0.6-0.6,1.2-1.4,1.4-2l0.1-0.2c0.4-0.9,0.9-1.7,1.6-2.5
		l1.5-1.6l0.1-0.1L41.1,31l-8.5-8.5l-0.1-0.1l-0.1,0.1L31.1,24c-0.9,0.9-1.9,1.4-3.3,1.6c0,0-0.1,0-0.1,0l-8.5,0
		c-0.4,0-0.7,0.3-0.7,0.7c0,1.1,0.9,2,2,2L22.8,28.2 M23.9,51.5c0.3,0,0.6-0.1,0.8-0.3c0.4-0.4,0.4-0.9,0.2-1.3l-6.5-6.5
		c-0.4-0.4-0.4-1,0-1.4c0.2-0.2,0.4-0.3,0.7-0.3c0.3,0,0.5,0.1,0.7,0.3l7.6,7.6c0.2,0.2,0.5,0.3,0.8,0.3c0.3,0,0.6-0.1,0.8-0.3
		c0.4-0.4,0.4-0.9,0.2-1.3L22,41.3c-0.4-0.4-0.4-1,0-1.4c0.2-0.2,0.4-0.3,0.7-0.3c0.3,0,0.5,0.1,0.7,0.3l8.2,8.1
		c0.2,0.2,0.5,0.3,0.8,0.3c0.3,0,0.6-0.1,0.8-0.3c0.4-0.4,0.4-1,0.1-1.4c-0.1-0.1-7.6-7.6-7.7-7.7c-0.4-0.4-0.4-1,0-1.4
		c0.2-0.2,0.4-0.3,0.7-0.3c0.3,0,0.5,0.1,0.7,0.3c0.1,0.1,6.1,6.1,6.2,6.1c0.2,0.2,0.5,0.3,0.8,0.3c0.3,0,0.5-0.1,0.8-0.3
		c0.4-0.4,0.4-1.1,0-1.5L22.5,30.1l0,0l0,0l-2,0c-2.1,0-3.9-1.7-3.9-3.9l0,0c0-0.1,0-0.2,0-0.3l0,0l0,0l-1-1l-0.1-0.1l-0.1,0.1
		l-8.5,8.5l-0.1,0.1l0.1,0.1l1.6,1.6c0.7,0.7,1.3,1.5,1.6,2.5l0.1,0.1c0.3,0.7,0.7,1.3,1.2,1.8l11.9,11.9
		C23.3,51.4,23.6,51.5,23.9,51.5 M34.7,15.6c-0.3,0-0.5,0.1-0.7,0.3l-3.2,3.2c-0.2,0.2-0.3,0.5-0.3,0.7s0.1,0.5,0.3,0.7l0.4,0.4
		l-1.5,1.5c-0.5,0.5-1.2,0.8-2.1,1l-8.4,0c-0.6,0-1.1,0.2-1.6,0.5l-0.7-0.7l0.4-0.4c0.2-0.2,0.3-0.5,0.3-0.7s-0.1-0.5-0.3-0.7
		l-3.2-3.2c-0.2-0.2-0.5-0.3-0.7-0.3c-0.3,0-0.5,0.1-0.7,0.3L0.4,30.5c-0.4,0.4-0.4,1.1,0,1.5l3.2,3.2c0.2,0.2,0.5,0.3,0.7,0.3
		c0.3,0,0.5-0.1,0.7-0.3l0.3-0.3L7,36.4c0.5,0.5,0.9,1.1,1.2,1.8l0.1,0.1c0.4,0.9,0.9,1.8,1.6,2.5l11.9,11.9
		c0.6,0.6,1.4,0.9,2.2,0.9c0.8,0,1.6-0.3,2.2-0.9c0.3-0.3,0.5-0.7,0.7-1c0.4,0.2,0.8,0.3,1.2,0.3c0.8,0,1.6-0.3,2.2-0.9
		c0.3-0.3,0.5-0.6,0.7-0.9c0.5,0.2,1,0.4,1.5,0.4c0.8,0,1.6-0.3,2.2-0.9c1-1,1.2-2.5,0.5-3.7c0.3-0.1,0.7-0.4,0.9-0.6c0,0,0,0,0,0
		c1.2-1.2,1.2-3.2,0-4.4l-0.1-0.1l2-2c0.6-0.6,1.4-1.7,1.9-2.7l0.1-0.2c0.3-0.7,0.7-1.3,1.2-1.8l1.6-1.6l0.3,0.3
		c0.2,0.2,0.5,0.3,0.7,0.3c0.3,0,0.5-0.1,0.7-0.3l3.2-3.2c0.4-0.4,0.4-1.1,0-1.5L35.4,15.9C35.2,15.7,34.9,15.6,34.7,15.6L34.7,15.6
		z M43.7,30.6L32.9,19.9l1.7-1.7l10.7,10.7L43.7,30.6L43.7,30.6z M4.3,32.9l-1.7-1.7l10.7-10.7l1.7,1.7L4.3,32.9L4.3,32.9z
		 M22.8,28.1l-2.4,0c-1,0-1.9-0.9-1.9-1.9c0-0.3,0.3-0.6,0.6-0.6l8.5,0c0,0,0.1,0,0.1,0c1.4-0.2,2.5-0.7,3.4-1.6l1.5-1.5l8.5,8.5
		l-1.5,1.6c-0.7,0.7-1.3,1.6-1.6,2.5l-0.1,0.2c-0.2,0.6-0.8,1.4-1.4,2l-2,2l-5.6-5.6c1.1,0,1.9-0.2,2.4-0.4c0.4-0.1,0.6-0.5,0.4-0.9
		l-0.4-0.8c-0.1-0.2-0.3-0.3-0.6-0.3c-0.1,0-0.1,0-0.2,0c-0.4,0.1-1.1,0.2-1.9,0.2c-0.6,0-1.3-0.1-2.1-0.2l-2.9-2.9l0,0
		C23.4,28.2,23.1,28.1,22.8,28.1C22.9,28.1,22.8,28.1,22.8,28.1L22.8,28.1z M23.9,51.5c-0.3,0-0.5-0.1-0.7-0.3L11.3,39.3
		c-0.5-0.5-0.9-1.1-1.2-1.8l-0.1-0.1c-0.4-0.9-0.9-1.8-1.6-2.5l-1.6-1.6l8.5-8.5l1,1c0,0.1,0,0.2,0,0.3c0,0,0,0,0,0
		c0.1,2.2,1.8,4,4,4l2,0l12.1,12.1c0.4,0.4,0.4,1,0,1.4c0,0,0,0,0,0c-0.2,0.2-0.4,0.3-0.7,0.3c-0.3,0-0.5-0.1-0.7-0.3
		c-0.1-0.1-6.2-6.1-6.2-6.1c-0.2-0.2-0.5-0.3-0.7-0.3c-0.3,0-0.5,0.1-0.7,0.3c-0.4,0.4-0.4,1.1,0,1.5c0,0,7.7,7.6,7.7,7.7
		c0.3,0.4,0.2,0.9-0.1,1.3c-0.2,0.2-0.4,0.3-0.7,0.3s-0.5-0.1-0.7-0.3l-8.2-8.1c-0.2-0.2-0.5-0.3-0.7-0.3s-0.5,0.1-0.7,0.3
		c-0.4,0.4-0.4,1.1,0,1.5l6.9,6.9c0.2,0.4,0.2,0.9-0.2,1.2c-0.2,0.2-0.4,0.3-0.7,0.3c-0.3,0-0.5-0.1-0.7-0.3l-7.6-7.6
		c-0.2-0.2-0.5-0.3-0.7-0.3c-0.3,0-0.5,0.1-0.7,0.3c-0.4,0.4-0.4,1.1,0,1.5l6.5,6.5c0.2,0.4,0.2,0.9-0.2,1.2
		C24.4,51.4,24.2,51.5,23.9,51.5L23.9,51.5z"/>
</g>
<g>
	<path class="st0" d="M24,16.5c-4.5,0-8.1-3.6-8.1-8.1c0-4.5,3.6-8.1,8.1-8.1c4.5,0,8.1,3.6,8.1,8.1C32.1,12.9,28.5,16.5,24,16.5z
		 M21.4,10.7C21.3,10.7,21.3,10.8,21.4,10.7c-0.1,0.1-0.2,0.2-0.2,0.3c0,0.1,0,0.2,0,0.2c0,0,0,0.1,0.1,0.1c0.3,0.2,0.6,0.4,1,0.5
		c0.4,0.1,0.8,0.2,1.2,0.3l0.3,0v1c0,0.1,0,0.2,0.1,0.2c0,0,0.1,0.1,0.2,0.1s0.2,0,0.2-0.1s0.1-0.1,0.1-0.2v-1l0.3,0
		c0.7-0.1,1.2-0.3,1.6-0.7c0.4-0.4,0.6-0.8,0.6-1.3c0-0.4-0.1-0.8-0.3-1c-0.2-0.3-0.5-0.5-0.8-0.6c-0.3-0.1-0.8-0.3-1.3-0.4
		c-0.4-0.1-0.8-0.2-1-0.3c-0.3-0.1-0.5-0.3-0.7-0.4c-0.2-0.2-0.3-0.5-0.3-0.9c0-0.5,0.2-0.9,0.6-1.1c0.3-0.3,0.8-0.4,1.4-0.4
		c0.4,0,0.8,0.1,1.1,0.2c0.3,0.1,0.6,0.3,1,0.5c0.1,0.1,0.2,0.1,0.2,0.1c0,0,0.1,0,0.1,0c0,0,0.1,0,0.1-0.1c0.1-0.1,0.1-0.1,0.1-0.2
		c0-0.1,0-0.2-0.1-0.3c-0.5-0.4-1.2-0.7-1.9-0.8l-0.3,0v-1c0-0.1,0-0.2-0.1-0.2c0,0-0.1-0.1-0.2-0.1s-0.2,0-0.2,0.1
		c0,0-0.1,0.1-0.1,0.2v1l-0.3,0c-0.7,0.1-1.2,0.3-1.6,0.7c-0.4,0.4-0.6,0.8-0.6,1.4c0,0.5,0.1,0.8,0.3,1c0.2,0.3,0.5,0.5,0.8,0.6
		c0.3,0.1,0.8,0.3,1.4,0.4c0.4,0.1,0.8,0.2,1,0.3c0.3,0.1,0.5,0.2,0.7,0.4c0.2,0.2,0.3,0.5,0.3,0.8c0,0.5-0.2,0.9-0.6,1.1
		c-0.3,0.2-0.8,0.4-1.4,0.4c-0.4,0-0.8-0.1-1.2-0.2c-0.4-0.1-0.8-0.3-1.1-0.6C21.6,10.8,21.5,10.8,21.4,10.7L21.4,10.7z"/>
	<path class="st1" d="M24,0.7c4.3,0,7.8,3.5,7.8,7.8s-3.5,7.8-7.8,7.8s-7.8-3.5-7.8-7.8S19.7,0.7,24,0.7 M24,11.3
		c-0.4,0-0.7-0.1-1.1-0.2c-0.3-0.1-0.7-0.3-1.1-0.5c-0.1-0.1-0.2-0.1-0.3-0.1c-0.1,0-0.1,0-0.2,0c-0.1,0-0.2,0.1-0.3,0.2
		c-0.1,0.1-0.1,0.3-0.1,0.4c0,0.1,0,0.2,0.1,0.3c0,0.1,0.1,0.2,0.2,0.2c0.3,0.2,0.7,0.4,1.1,0.6c0.4,0.1,0.9,0.2,1.3,0.3v0.7
		c0,0.2,0.1,0.3,0.2,0.4c0.1,0.1,0.3,0.2,0.4,0.2c0.2,0,0.3-0.1,0.4-0.2c0.1-0.1,0.2-0.3,0.2-0.4v-0.7c0.7-0.1,1.3-0.4,1.7-0.8
		c0.4-0.4,0.6-1,0.6-1.6c0-0.5-0.1-0.9-0.4-1.2c-0.3-0.3-0.6-0.5-0.9-0.7C25.5,8,25,7.9,24.4,7.7c-0.4-0.1-0.8-0.2-1-0.3
		c-0.2-0.1-0.5-0.2-0.6-0.4c-0.2-0.2-0.2-0.4-0.2-0.6c0-0.4,0.1-0.7,0.4-0.9c0.3-0.2,0.7-0.3,1.2-0.3c0.4,0,0.7,0.1,1,0.2
		c0.3,0.1,0.6,0.3,0.9,0.5C26.2,6,26.2,6,26.3,6.1c0.1,0,0.1,0,0.2,0c0.1,0,0.2-0.1,0.3-0.2C27,5.8,27,5.6,27,5.5
		c0-0.2-0.1-0.4-0.3-0.5c-0.6-0.5-1.2-0.8-2-0.9V3.3c0-0.2-0.1-0.3-0.2-0.4c-0.1-0.1-0.3-0.2-0.4-0.2c-0.2,0-0.3,0.1-0.4,0.2
		c-0.1,0.1-0.2,0.3-0.2,0.4v0.7c-0.7,0.1-1.3,0.4-1.8,0.8c-0.5,0.4-0.7,1-0.7,1.6c0,0.5,0.1,0.9,0.4,1.3c0.3,0.3,0.6,0.5,0.9,0.7
		c0.4,0.2,0.8,0.3,1.4,0.4c0.4,0.1,0.7,0.2,1,0.3c0.2,0.1,0.4,0.2,0.6,0.3c0.2,0.1,0.2,0.3,0.2,0.5c0,0.4-0.1,0.7-0.4,0.9
		C24.9,11.2,24.5,11.3,24,11.3 M24,0c-4.6,0-8.4,3.8-8.4,8.4s3.8,8.4,8.4,8.4s8.4-3.8,8.4-8.4S28.6,0,24,0L24,0z M25.7,11.4
		c0.4-0.3,0.6-0.8,0.6-1.3c0-0.4-0.2-0.8-0.4-1c-0.2-0.2-0.5-0.4-0.8-0.5c-0.3-0.1-0.6-0.2-1-0.3c-0.6-0.1-1-0.3-1.3-0.4
		c-0.3-0.1-0.5-0.3-0.7-0.5c-0.2-0.2-0.2-0.5-0.2-0.8c0-0.5,0.2-0.8,0.5-1.1c0.1-0.1,0.1-0.1,0.2-0.2c-0.3,0.3-0.5,0.8-0.5,1.3
		c0,0.4,0.2,0.8,0.4,1.1c0.2,0.2,0.5,0.4,0.9,0.5c0.3,0.1,0.6,0.2,1.1,0.3c0.5,0.1,1,0.3,1.3,0.4C25.8,8.9,26,9,26.2,9.2
		c0.1,0.2,0.2,0.4,0.2,0.8c0,0.5-0.1,0.8-0.5,1.1C25.9,11.3,25.8,11.3,25.7,11.4L25.7,11.4z"/>
</g>
</svg>
