<?xml version="1.0" encoding="utf-8"?>
<!-- Generator: Adobe Illustrator 22.0.1, SVG Export Plug-In . SVG Version: 6.00 Build 0)  -->
<svg version="1.1" id="Layer_1" xmlns="http://www.w3.org/2000/svg" xmlns:xlink="http://www.w3.org/1999/xlink" x="0px" y="0px"
	 viewBox="0 0 50.7 54.6" style="enable-background:new 0 0 50.7 54.6;" xml:space="preserve">
<style type="text/css">
	.st0{fill:#95BB3B;}
</style>
<g>
	<g>
		<path class="st0" d="M6.8,54.6c-0.6,0-1.2-0.4-1.5-0.9L0.2,42.9c-0.4-0.8,0-1.8,0.8-2.1L4.8,39c0.2-0.1,0.4-0.2,0.7-0.2
			c0.6,0,1.2,0.4,1.5,0.9l5.1,10.7c0.2,0.4,0.2,0.8,0.1,1.2c-0.1,0.4-0.4,0.7-0.8,0.9l-3.8,1.8C7.3,54.5,7.1,54.6,6.8,54.6
			C6.8,54.6,6.8,54.6,6.8,54.6z M5.5,40.1c0,0-0.1,0-0.1,0l-3.8,1.8c-0.2,0.1-0.2,0.3-0.1,0.4l5.1,10.7c0.1,0.1,0.2,0.2,0.3,0.2
			c0,0,0.1,0,0.1,0l3.8-1.8c0.1,0,0.1-0.1,0.2-0.2c0-0.1,0-0.2,0-0.2L5.8,40.3C5.7,40.2,5.6,40.1,5.5,40.1z"/>
		<path class="st0" d="M5.5,38.9c0.6,0,1.1,0.3,1.4,0.9l0.5,1.1l0.5,1.1l3.2,6.7l0.5,1.1l0.4,0.8c0.4,0.8,0,1.7-0.7,2l-3.8,1.8
			c-0.2,0.1-0.4,0.2-0.7,0.2c-0.6,0-1.1-0.3-1.4-0.9L0.3,42.9c-0.4-0.8,0-1.7,0.7-2L4.8,39C5,38.9,5.3,38.9,5.5,38.9 M6.8,53.3
			c0.1,0,0.1,0,0.2,0l3.8-1.8c0.2-0.1,0.3-0.3,0.2-0.5L5.8,40.2C5.8,40.1,5.6,40,5.5,40c-0.1,0-0.1,0-0.2,0l-3.8,1.8
			c-0.2,0.1-0.3,0.3-0.2,0.5l5.1,10.7C6.5,53.3,6.7,53.3,6.8,53.3 M5.5,38.7c-0.3,0-0.5,0.1-0.7,0.2L1,40.7
			c-0.8,0.4-1.2,1.4-0.8,2.2l5.1,10.7c0.3,0.6,0.9,1,1.5,1c0.3,0,0.5-0.1,0.7-0.2l3.8-1.8c0.4-0.2,0.7-0.5,0.9-1
			c0.1-0.4,0.1-0.9-0.1-1.3l-0.4-0.8l-0.5-1.1L8,41.9l-0.5-1.1L7,39.7C6.7,39.1,6.1,38.7,5.5,38.7L5.5,38.7z M6.8,53.2
			c-0.1,0-0.2-0.1-0.2-0.1L1.5,42.3c0-0.1,0-0.1,0-0.2c0-0.1,0.1-0.1,0.1-0.1l3.8-1.8c0,0,0.1,0,0.1,0c0.1,0,0.2,0.1,0.2,0.1
			L10.8,51c0,0.1,0,0.1,0,0.2c0,0.1-0.1,0.1-0.1,0.1L6.8,53.2C6.9,53.2,6.9,53.2,6.8,53.2L6.8,53.2z"/>
	</g>
	<g>
		<path class="st0" d="M11.1,49.7c-0.1-0.4-0.3-0.7-0.5-1.1l0-0.1l0.1,0c3.6-1.8,6.6-3.2,6.6-3.2l0,0l0,0c0.1,0,10.2-2.2,11.8-2.8
			c0.5-0.2,0.8-0.3,0.9-0.3c0,0,0.1-0.1,0.2-0.2c0.1-0.1,0.3-0.3,0.4-0.4c0.3-0.4,0.7-0.9,1.1-1.5c0.7-1.1,1.6-2.6,2.7-4.4
			c1.5-2.6,3-5.4,3.9-7.2c0.2-0.4,0.4-0.8,0.6-1.1c0.2-0.4,0.2-0.9,0-1.3c-0.2-0.4-0.5-0.6-0.9-0.7c-0.1,0-0.3-0.1-0.5-0.1
			c-0.2,0-0.5,0.1-0.7,0.2c-0.2,0.1-0.4,0.2-0.5,0.5L36.3,26c0,0.1-0.1,0.2-0.1,0.3c0,0-0.1,0.1-0.1,0.1L33,31.3
			c-0.1,0.2-0.4,0.3-0.6,0.3c-0.1,0-0.3,0-0.4-0.1c-0.2-0.1-0.3-0.3-0.3-0.4c0-0.2,0-0.4,0.1-0.5l2.8-4.4c-0.1,0-0.3-0.1-0.4-0.1
			c-0.2,0-0.5,0.1-0.7,0.2c-0.2,0.1-0.4,0.2-0.5,0.5l-2.4,3.9c-0.1,0.2-0.4,0.3-0.6,0.3c-0.1,0-0.3,0-0.4-0.1
			c-0.2-0.1-0.3-0.3-0.3-0.4c0-0.2,0-0.4,0.1-0.5l1-1.6c-0.1,0-0.2,0-0.3,0c-0.2,0-0.5,0.1-0.7,0.2c-0.2,0.1-0.4,0.2-0.5,0.4l-2,3.3
			c0.3-0.1,1-0.2,1-0.2c0.4-0.1,0.8-0.1,1.1-0.1c0.2,0,0.4,0,0.6,0c0.6,0.1,1.2,0.3,1.6,0.6c0.3,0.2,0.6,0.6,0.8,0.9
			c0.8,1.5,0.2,3.4-1.4,4.2l0,0l-1.6,0.6l-5.3,1.9c-0.1,0-0.2,0-0.2,0c-0.3,0-0.6-0.2-0.7-0.5c-0.1-0.4,0.1-0.8,0.4-0.9l5.3-1.9
			l1.5-0.6c0.4-0.2,0.7-0.6,0.8-1c0.1-0.4,0.1-0.9-0.1-1.3c-0.1-0.2-0.2-0.3-0.4-0.5c-0.2-0.1-0.3-0.2-0.6-0.3
			c-0.2-0.1-0.5-0.1-0.8-0.1c-0.3,0-0.6,0-0.8,0.1c-0.9,0.2-5.7,1-8.6,1.7c-0.9,0.2-1.6,0.4-1.9,0.5c-0.1,0-0.1,0-0.1,0.1l0,0l0,0
			c0,0-0.1,0-0.1,0.1c-0.1,0.1-0.2,0.2-0.3,0.3c-0.1,0.1-0.7,0.7-1.4,1.4c-1.3,1.3-2.2,2.2-2.4,2.3c0,0-0.2,0.1-0.4,0.2
			c-0.9,0.4-2.9,1.4-5.2,2.4l-0.1,0l0-0.1c0-0.1-0.1-0.2-0.1-0.2c-0.1-0.3-0.3-0.5-0.5-0.8l-0.1-0.1l5.8-2.6c0.3-0.3,1.1-1.1,1.9-2
			c1-1,2-2,2.1-2.1c0.1-0.1,0.1-0.1,0.2-0.1c0.1-0.1,0.2-0.1,0.3-0.1c0.1,0,0.3-0.1,0.4-0.1c0.3-0.1,0.7-0.2,1.1-0.3
			c0.8-0.2,1.9-0.4,3.1-0.7c0.9-0.2,2-0.4,3.2-0.6l2.7-4.4l0,0c0.3-0.4,0.6-0.7,1-0.9c0.4-0.2,0.9-0.3,1.3-0.3
			c0.4,0,0.7,0.1,1.1,0.2l0.7-1.1l0,0c0.3-0.4,0.6-0.7,1-0.9c0.4-0.2,0.9-0.3,1.3-0.3c0.4,0,0.8,0.1,1.2,0.2
			c0.3-0.3,0.6-0.6,0.9-0.7c0.4-0.2,0.9-0.3,1.3-0.3c1.1,0,2.1,0.6,2.6,1.6c0.4,0.8,0.4,1.8,0,2.6c-0.2,0.3-0.4,0.7-0.6,1.2
			c-0.8,1.4-1.8,3.4-2.9,5.4c-1.9,3.4-3.4,5.8-4.4,7.2c-0.4,0.5-0.7,0.9-1,1.2c-0.2,0.2-0.4,0.3-0.6,0.4c-0.3,0.1-0.6,0.3-1.1,0.4
			c-0.5,0.2-1,0.3-1.7,0.5c-0.8,0.2-3.8,0.8-6.4,1.4c-1.8,0.4-3.3,0.7-3.7,0.8L11.1,49.7L11.1,49.7z"/>
		<path class="st0" d="M37.6,23.9c1,0,2,0.6,2.5,1.5c0.4,0.8,0.4,1.8,0,2.6c-0.7,1.3-2,3.9-3.6,6.6c-1.5,2.7-3.1,5.5-4.4,7.2
			c-0.4,0.5-0.7,0.9-1,1.2c-0.2,0.2-0.3,0.3-0.5,0.4c-0.3,0.1-0.6,0.3-1.1,0.4c-0.5,0.2-1.1,0.3-1.7,0.5c-1.3,0.4-9.1,1.9-10.1,2.1
			l-6.5,3.2c-0.1-0.4-0.3-0.8-0.5-1.1c3.6-1.8,6.6-3.2,6.6-3.2s10.2-2.2,11.8-2.8c0.4-0.2,0.8-0.3,0.9-0.4c0,0,0.1-0.1,0.3-0.2
			c0.1-0.1,0.3-0.3,0.4-0.4c0.3-0.4,0.7-0.9,1.1-1.5c0.8-1.2,1.7-2.8,2.7-4.4c1.9-3.3,3.7-6.8,4.5-8.3c0.2-0.4,0.2-0.9,0-1.4
			c-0.2-0.4-0.5-0.7-0.9-0.8c-0.2,0-0.3-0.1-0.5-0.1c-0.2,0-0.5,0.1-0.7,0.2c-0.2,0.1-0.4,0.3-0.5,0.5L36.2,26
			c0,0.1-0.1,0.2-0.1,0.3c0,0-0.1,0.1-0.1,0.1l-3.1,4.9c-0.1,0.2-0.3,0.3-0.5,0.3c-0.1,0-0.2,0-0.3-0.1c-0.3-0.2-0.4-0.6-0.2-0.9
			l2.8-4.5C34.5,26,34.4,26,34.2,26c-0.2,0-0.5,0.1-0.7,0.2c-0.2,0.1-0.4,0.3-0.5,0.5l-2.4,3.9c-0.1,0.2-0.3,0.3-0.5,0.3
			c-0.1,0-0.2,0-0.3-0.1c-0.3-0.2-0.4-0.6-0.2-0.9l1-1.7c-0.1,0-0.3-0.1-0.4-0.1c-0.2,0-0.5,0.1-0.7,0.2c-0.2,0.1-0.4,0.3-0.5,0.5
			l-2.1,3.4c0.4-0.1,0.8-0.1,1.1-0.2c0.4-0.1,0.7-0.1,1.1-0.1c0.2,0,0.4,0,0.6,0c0.5,0.1,1.1,0.2,1.6,0.6c0.3,0.2,0.6,0.5,0.8,0.9
			c0.8,1.5,0.2,3.3-1.3,4.1l0,0l-1.6,0.6l-5.3,1.9c-0.1,0-0.1,0-0.2,0c-0.3,0-0.5-0.2-0.6-0.4c-0.1-0.3,0.1-0.7,0.4-0.8l5.3-1.9
			l1.5-0.6c0.4-0.2,0.7-0.6,0.9-1c0.1-0.4,0.1-0.9-0.1-1.4c-0.1-0.2-0.2-0.4-0.4-0.5c-0.2-0.1-0.4-0.2-0.6-0.3
			c-0.2-0.1-0.5-0.1-0.8-0.1c-0.3,0-0.6,0-0.9,0.1c-1.7,0.3-6,1.1-8.6,1.7c-0.9,0.2-1.6,0.4-1.9,0.5c-0.1,0-0.1,0.1-0.1,0.1
			c0,0,0,0,0,0c0,0-0.1,0-0.2,0.1c-0.1,0.1-0.2,0.2-0.3,0.3c-0.3,0.2-3.5,3.6-3.8,3.7c-0.1,0-2.7,1.2-5.7,2.6c0-0.1-0.1-0.2-0.1-0.2
			c-0.1-0.3-0.3-0.5-0.5-0.8c3.1-1.4,5.7-2.6,5.7-2.6c0.6-0.6,3.8-3.9,4.1-4.1c0.1-0.1,0.1-0.1,0.2-0.1c0.1-0.1,0.2-0.1,0.3-0.1
			c0.1,0,0.3-0.1,0.4-0.1c0.3-0.1,0.7-0.2,1.1-0.3c0.9-0.2,2-0.4,3.1-0.7c1.1-0.2,2.2-0.4,3.3-0.6l2.7-4.4l0,0
			c0.2-0.3,0.6-0.6,1-0.9c0.4-0.2,0.9-0.3,1.3-0.3c0.4,0,0.8,0.1,1.1,0.2l0.7-1.1l0,0c0.2-0.3,0.6-0.6,1-0.9
			c0.4-0.2,0.9-0.3,1.3-0.3c0.4,0,0.8,0.1,1.2,0.3c0.2-0.3,0.5-0.6,0.9-0.7C36.7,24,37.2,23.9,37.6,23.9 M37.6,23.8
			c-0.5,0-0.9,0.1-1.4,0.3c-0.3,0.2-0.6,0.4-0.9,0.7c-0.4-0.2-0.8-0.2-1.2-0.2c-0.5,0-0.9,0.1-1.4,0.3c-0.4,0.2-0.8,0.5-1,0.9l0,0
			l-0.7,1c-0.3-0.1-0.7-0.2-1.1-0.2c-0.5,0-0.9,0.1-1.3,0.3c-0.4,0.2-0.8,0.5-1,0.9l0,0.1L25,32.4c-1.2,0.2-2.3,0.4-3.2,0.6
			c-1.3,0.3-2.3,0.5-3.1,0.7c-0.5,0.1-0.8,0.2-1.1,0.3c-0.2,0-0.3,0.1-0.4,0.1c-0.1,0-0.2,0.1-0.3,0.1c-0.1,0-0.2,0.1-0.2,0.1
			c-0.1,0.1-0.9,0.9-2.1,2.1c-0.8,0.8-1.6,1.7-1.9,2L6.8,41l-0.2,0.1l0.1,0.1c0.2,0.2,0.4,0.5,0.5,0.7c0,0.1,0.1,0.2,0.1,0.2
			l0.1,0.1l0.1-0.1c2.3-1.1,4.3-2,5.2-2.4c0.3-0.1,0.4-0.2,0.5-0.2c0.1-0.1,0.7-0.7,2.4-2.3c0.7-0.7,1.3-1.3,1.4-1.4
			c0.1-0.1,0.3-0.2,0.3-0.3c0.1,0,0.1-0.1,0.1-0.1h0l0,0c0,0,0.1,0,0.1,0c0.3-0.1,1-0.3,1.9-0.5c2.9-0.6,7.7-1.5,8.6-1.7
			c0.3-0.1,0.6-0.1,0.8-0.1c0.3,0,0.5,0,0.7,0.1c0.2,0.1,0.4,0.1,0.5,0.3c0.2,0.1,0.3,0.3,0.4,0.4c0.2,0.4,0.2,0.8,0.1,1.3
			c-0.1,0.4-0.4,0.7-0.8,0.9l-1.5,0.6l-5.3,1.9c-0.4,0.1-0.6,0.6-0.5,1c0.1,0.3,0.4,0.5,0.7,0.5c0.1,0,0.2,0,0.3,0l5.3-1.9l1.6-0.6
			l0,0l0,0l0,0c1.6-0.8,2.2-2.7,1.4-4.3c-0.2-0.4-0.5-0.7-0.8-1c-0.4-0.3-1-0.5-1.6-0.6c-0.2,0-0.4,0-0.6,0c-0.3,0-0.7,0-1.1,0.1
			l-0.1,0c-0.2,0-0.5,0.1-0.7,0.1l1.9-3.2c0.1-0.2,0.3-0.3,0.5-0.4c0.2-0.1,0.4-0.2,0.6-0.2c0.1,0,0.1,0,0.2,0l-0.9,1.5
			c-0.1,0.2-0.1,0.4-0.1,0.6c0,0.2,0.2,0.4,0.3,0.5c0.1,0.1,0.3,0.1,0.4,0.1c0.3,0,0.5-0.1,0.7-0.4l2.4-3.9c0.1-0.2,0.3-0.3,0.5-0.4
			c0.2-0.1,0.4-0.2,0.6-0.2c0.1,0,0.2,0,0.3,0l-2.7,4.3c-0.1,0.2-0.1,0.4-0.1,0.6c0,0.2,0.2,0.4,0.3,0.5c0.1,0.1,0.3,0.1,0.4,0.1
			c0.3,0,0.5-0.1,0.7-0.4l3.1-4.9c0,0,0.1-0.1,0.1-0.1c0.1-0.1,0.1-0.2,0.2-0.3l0.1-0.1c0.1-0.2,0.3-0.3,0.5-0.4
			c0.2-0.1,0.4-0.2,0.6-0.2c0.1,0,0.3,0,0.4,0.1c0.4,0.1,0.7,0.4,0.8,0.7c0.2,0.4,0.2,0.9,0,1.2c-0.2,0.3-0.4,0.7-0.6,1.2
			c-1,1.8-2.4,4.6-3.9,7.2c-1,1.8-1.9,3.3-2.7,4.4c-0.4,0.6-0.8,1.1-1.1,1.5c-0.2,0.2-0.3,0.3-0.4,0.4c-0.1,0.1-0.2,0.2-0.2,0.2
			c-0.1,0.1-0.4,0.2-0.9,0.3c-1.6,0.5-11.7,2.7-11.8,2.8l0,0l0,0c0,0-3,1.4-6.6,3.2l-0.1,0.1l0.1,0.1c0.2,0.4,0.4,0.7,0.5,1.1l0,0.2
			l0.2-0.1l6.5-3.2c0.4-0.1,1.9-0.4,3.7-0.8c2.6-0.5,5.6-1.1,6.4-1.4c0.7-0.2,1.3-0.4,1.7-0.5c0.5-0.2,0.8-0.3,1.1-0.4
			c0.2-0.1,0.4-0.2,0.6-0.4c0.3-0.3,0.6-0.7,1-1.2c1.1-1.4,2.5-3.8,4.4-7.2c1.1-2,2.2-4,2.9-5.4c0.2-0.5,0.4-0.8,0.6-1.1
			c0.4-0.8,0.4-1.8,0-2.7C39.7,24.4,38.7,23.8,37.6,23.8L37.6,23.8z"/>
	</g>
</g>
<g>
	<g>
		<path class="st0" d="M45.2,15.8c-0.6,0-1.2-0.4-1.5-0.9L38.6,4.2c-0.2-0.4-0.2-0.8-0.1-1.2c0.1-0.4,0.4-0.7,0.8-0.9l3.8-1.8
			c0.2-0.1,0.4-0.2,0.7-0.2c0.6,0,1.2,0.4,1.5,0.9l5.1,10.7c0.4,0.8,0,1.8-0.8,2.1l-3.8,1.8C45.7,15.8,45.5,15.8,45.2,15.8
			L45.2,15.8z M43.9,1.4c0,0-0.1,0-0.1,0l-3.8,1.8c-0.2,0.1-0.2,0.3-0.1,0.4l5.1,10.7c0.1,0.1,0.2,0.2,0.3,0.2c0,0,0.1,0,0.1,0
			l3.8-1.8c0.1,0,0.1-0.1,0.2-0.2c0-0.1,0-0.2,0-0.2L44.2,1.5C44.1,1.4,44,1.4,43.9,1.4z"/>
		<path class="st0" d="M43.9,0.1c0.6,0,1.1,0.3,1.4,0.9l5.1,10.7c0.4,0.8,0,1.7-0.7,2l-3.8,1.8c-0.2,0.1-0.4,0.2-0.7,0.2
			c-0.6,0-1.1-0.3-1.4-0.9l-0.5-1.1l-0.5-1.1l-3.2-6.7L39.1,5l-0.4-0.8c-0.4-0.8,0-1.7,0.7-2l3.8-1.8C43.4,0.2,43.6,0.1,43.9,0.1
			 M45.2,14.6c0.1,0,0.1,0,0.2,0l3.8-1.8c0.2-0.1,0.3-0.3,0.2-0.5L44.2,1.5c-0.1-0.1-0.2-0.2-0.4-0.2c-0.1,0-0.1,0-0.2,0l-3.8,1.8
			c-0.2,0.1-0.3,0.3-0.2,0.5l5.1,10.7C44.9,14.5,45.1,14.6,45.2,14.6 M43.9,0c-0.3,0-0.5,0.1-0.7,0.2L39.3,2c-0.4,0.2-0.7,0.5-0.9,1
			c-0.1,0.4-0.1,0.9,0.1,1.3L39,5.1l0.5,1.1l3.2,6.7l0.5,1.1l0.5,1.1c0.3,0.6,0.9,1,1.5,1c0.3,0,0.5-0.1,0.7-0.2l3.8-1.8
			c0.8-0.4,1.2-1.4,0.8-2.2L45.4,1C45.1,0.4,44.5,0,43.9,0L43.9,0z M45.2,14.5c-0.1,0-0.2-0.1-0.2-0.1L39.9,3.6c0-0.1,0-0.1,0-0.2
			c0-0.1,0.1-0.1,0.1-0.1l3.8-1.8c0,0,0.1,0,0.1,0c0.1,0,0.2,0.1,0.2,0.1l5.1,10.7c0,0.1,0,0.1,0,0.2c0,0.1-0.1,0.1-0.1,0.1
			L45.2,14.5C45.3,14.5,45.3,14.5,45.2,14.5L45.2,14.5z"/>
	</g>
	<g>
		<path class="st0" d="M13.1,30.8c-1.1,0-2.1-0.6-2.6-1.6c-0.4-0.8-0.4-1.8,0-2.6c0.2-0.3,0.4-0.7,0.6-1.1c0.8-1.4,1.8-3.4,2.9-5.4
			c1.9-3.4,3.4-5.8,4.4-7.2c0.4-0.5,0.7-0.9,1-1.2c0.2-0.2,0.4-0.3,0.6-0.4c0.3-0.1,0.6-0.3,1.1-0.4c0.4-0.2,1-0.3,1.7-0.5
			c0.8-0.2,3.8-0.8,6.4-1.4C31,8.5,32.6,8.2,33,8.1l6.6-3.2l0,0.1c0.1,0.4,0.3,0.7,0.5,1.1l0,0.1l-0.1,0c-3.6,1.8-6.6,3.2-6.6,3.2
			l0,0l0,0c-0.1,0-10.2,2.2-11.8,2.8c-0.5,0.2-0.8,0.3-0.9,0.3c0,0-0.1,0.1-0.2,0.2c-0.1,0.1-0.3,0.3-0.4,0.4
			c-0.3,0.4-0.7,0.9-1.1,1.5c-0.7,1.1-1.6,2.6-2.7,4.4c-1.5,2.6-3,5.4-3.9,7.2c-0.2,0.5-0.4,0.8-0.6,1.2c-0.2,0.4-0.2,0.9,0,1.3
			c0.2,0.4,0.5,0.6,0.9,0.7c0.2,0,0.3,0.1,0.5,0.1c0.2,0,0.5-0.1,0.7-0.2c0.2-0.1,0.4-0.2,0.5-0.5l0.1-0.1c0-0.1,0.1-0.2,0.1-0.3
			c0,0,0.1-0.1,0.1-0.1l3.1-4.9c0.1-0.2,0.4-0.3,0.6-0.3c0.1,0,0.3,0,0.4,0.1c0.2,0.1,0.3,0.3,0.3,0.4c0,0.2,0,0.4-0.1,0.5l-2.8,4.4
			c0.1,0,0.3,0.1,0.4,0.1c0.2,0,0.5-0.1,0.7-0.2c0.2-0.1,0.4-0.2,0.5-0.5l2.4-3.9c0.1-0.2,0.4-0.3,0.6-0.3c0.1,0,0.3,0,0.4,0.1
			c0.2,0.1,0.3,0.3,0.3,0.4c0,0.2,0,0.4-0.1,0.5l-1,1.6c0.1,0,0.2,0,0.3,0c0.2,0,0.5-0.1,0.7-0.2c0.2-0.1,0.4-0.2,0.5-0.4l2-3.3
			c-0.3,0.1-1,0.2-1,0.2c-0.4,0.1-0.8,0.1-1.1,0.1c-0.2,0-0.4,0-0.6,0c-0.6-0.1-1.2-0.3-1.6-0.6c-0.3-0.2-0.6-0.6-0.8-0.9
			c-0.8-1.5-0.2-3.4,1.4-4.2l0,0l1.6-0.6l5.3-1.9c0.1,0,0.2,0,0.2,0c0.3,0,0.6,0.2,0.7,0.5c0.1,0.4-0.1,0.8-0.4,0.9l-5.3,1.9
			l-1.5,0.6c-0.4,0.2-0.7,0.6-0.8,1c-0.1,0.4-0.1,0.9,0.1,1.3c0.1,0.2,0.2,0.3,0.4,0.5c0.2,0.1,0.3,0.2,0.6,0.3
			c0.2,0.1,0.5,0.1,0.8,0.1c0.3,0,0.6,0,0.8-0.1c0.9-0.2,5.7-1,8.6-1.7c0.9-0.2,1.6-0.4,1.9-0.5c0.1,0,0.1,0,0.1,0l0,0h0
			c0,0,0.1-0.1,0.1-0.1c0.1-0.1,0.2-0.2,0.3-0.3c0.1-0.1,0.7-0.7,1.4-1.4c1.3-1.3,2.2-2.2,2.4-2.3c0,0,0.2-0.1,0.4-0.2
			c0.9-0.4,2.9-1.4,5.2-2.4l0.1,0l0,0.1c0,0.1,0.1,0.2,0.1,0.2c0.1,0.3,0.3,0.5,0.5,0.8l0.1,0.1l-5.8,2.6c-0.3,0.3-1.1,1.1-1.9,2
			c-1,1-2,2-2.1,2.1c-0.1,0.1-0.1,0.1-0.2,0.1c-0.1,0.1-0.2,0.1-0.3,0.1c-0.1,0-0.3,0.1-0.4,0.1c-0.3,0.1-0.7,0.2-1.1,0.3
			c-0.8,0.2-1.9,0.4-3.1,0.7c-0.9,0.2-2,0.4-3.2,0.6L23,26.6l0,0c-0.3,0.4-0.6,0.7-1,0.9c-0.4,0.2-0.9,0.3-1.3,0.3
			c-0.4,0-0.7-0.1-1.1-0.2l-0.7,1.1l0,0c-0.3,0.4-0.6,0.7-1,0.9C17.4,29.9,17,30,16.5,30c-0.4,0-0.8-0.1-1.2-0.2
			c-0.3,0.3-0.6,0.6-0.9,0.7C14,30.7,13.6,30.8,13.1,30.8C13.1,30.8,13.1,30.8,13.1,30.8z"/>
		<path class="st0" d="M39.5,4.9c0.1,0.4,0.3,0.8,0.5,1.1c-3.6,1.8-6.6,3.2-6.6,3.2S23.2,11.5,21.6,12c-0.4,0.2-0.8,0.3-0.9,0.4
			c0,0-0.1,0.1-0.3,0.2c-0.1,0.1-0.3,0.3-0.4,0.4c-0.3,0.4-0.7,0.9-1.1,1.5c-0.8,1.2-1.7,2.8-2.7,4.4c-1.9,3.3-3.7,6.8-4.5,8.3
			c-0.2,0.4-0.2,0.9,0,1.4c0.2,0.4,0.5,0.7,0.9,0.8c0.2,0,0.3,0.1,0.5,0.1c0.2,0,0.5-0.1,0.7-0.2c0.2-0.1,0.4-0.3,0.5-0.5l0.1-0.2
			c0-0.1,0.1-0.2,0.1-0.3c0,0,0.1-0.1,0.1-0.1l3.1-4.9c0.1-0.2,0.3-0.3,0.5-0.3c0.1,0,0.2,0,0.3,0.1c0.3,0.2,0.4,0.6,0.2,0.9
			L16,28.6c0.2,0.1,0.3,0.1,0.5,0.1c0.2,0,0.5-0.1,0.7-0.2c0.2-0.1,0.4-0.3,0.5-0.5l2.4-3.9c0.1-0.2,0.3-0.3,0.5-0.3
			c0.1,0,0.2,0,0.3,0.1c0.3,0.2,0.4,0.6,0.2,0.9l-1,1.7c0.1,0,0.3,0.1,0.4,0.1c0.2,0,0.5-0.1,0.7-0.2c0.2-0.1,0.4-0.3,0.5-0.5
			l2.1-3.4c-0.4,0.1-0.8,0.1-1.1,0.2c-0.4,0.1-0.7,0.1-1.1,0.1c-0.2,0-0.4,0-0.6,0c-0.5-0.1-1.1-0.2-1.6-0.6
			c-0.3-0.2-0.6-0.5-0.8-0.9c-0.8-1.5-0.2-3.3,1.3-4.1l0,0l1.6-0.6l5.3-1.9c0.1,0,0.1,0,0.2,0c0.3,0,0.5,0.2,0.6,0.4
			c0.1,0.3-0.1,0.7-0.4,0.8l-5.3,1.9l-1.5,0.6c-0.4,0.2-0.7,0.6-0.9,1c-0.1,0.4-0.1,0.9,0.1,1.4c0.1,0.2,0.2,0.4,0.4,0.5
			c0.2,0.1,0.4,0.2,0.6,0.3c0.2,0.1,0.5,0.1,0.8,0.1c0.3,0,0.6,0,0.9-0.1c1.7-0.3,6-1.1,8.6-1.7c0.9-0.2,1.6-0.4,1.9-0.5
			c0.1,0,0.1-0.1,0.1-0.1c0,0,0,0,0,0c0,0,0.1,0,0.2-0.1c0.1-0.1,0.2-0.2,0.3-0.3c0.3-0.2,3.5-3.6,3.8-3.7c0.1,0,2.7-1.2,5.7-2.6
			c0,0.1,0.1,0.2,0.1,0.2c0.1,0.3,0.3,0.5,0.5,0.8c-3.1,1.4-5.7,2.6-5.7,2.6c-0.6,0.6-3.8,3.9-4.1,4.1c-0.1,0.1-0.1,0.1-0.2,0.1
			c-0.1,0.1-0.2,0.1-0.3,0.1c-0.1,0-0.3,0.1-0.4,0.1c-0.3,0.1-0.7,0.2-1.1,0.3c-0.9,0.2-2,0.4-3.1,0.7c-1.1,0.2-2.2,0.4-3.3,0.6
			l-2.7,4.4l0,0c-0.2,0.3-0.6,0.6-1,0.9c-0.4,0.2-0.9,0.3-1.3,0.3c-0.4,0-0.8-0.1-1.1-0.2l-0.7,1.1l0,0c-0.2,0.3-0.6,0.6-1,0.9
			c-0.4,0.2-0.9,0.3-1.3,0.3c-0.4,0-0.8-0.1-1.2-0.3c-0.2,0.3-0.5,0.6-0.9,0.7c-0.4,0.2-0.9,0.3-1.3,0.3c-1,0-2-0.6-2.5-1.5
			c-0.4-0.8-0.4-1.8,0-2.6c0.7-1.3,2-3.9,3.6-6.6c1.5-2.7,3.1-5.5,4.4-7.2c0.4-0.5,0.7-0.9,1-1.2c0.2-0.2,0.3-0.3,0.5-0.4
			c0.3-0.1,0.6-0.3,1.1-0.4c0.5-0.2,1.1-0.3,1.7-0.5C24.2,9.9,32,8.4,33,8.1L39.5,4.9 M39.6,4.7l-0.2,0.1L32.9,8
			c-0.4,0.1-1.9,0.4-3.7,0.8c-2.6,0.5-5.6,1.1-6.4,1.4c-0.7,0.2-1.3,0.4-1.7,0.5c-0.5,0.2-0.8,0.3-1.1,0.4c-0.2,0.1-0.4,0.2-0.6,0.4
			c-0.3,0.3-0.6,0.7-1,1.2c-1.1,1.4-2.5,3.8-4.4,7.2c-1.1,2-2.2,4-2.9,5.4c-0.2,0.5-0.4,0.8-0.6,1.2c-0.4,0.8-0.4,1.8,0,2.7
			c0.5,1,1.5,1.6,2.7,1.6c0.5,0,0.9-0.1,1.4-0.3c0.3-0.2,0.6-0.4,0.9-0.7c0.4,0.2,0.8,0.2,1.2,0.2c0.5,0,0.9-0.1,1.4-0.3
			c0.4-0.2,0.8-0.5,1-0.9l0,0l0.7-1c0.3,0.1,0.7,0.2,1.1,0.2c0.5,0,0.9-0.1,1.3-0.3c0.4-0.2,0.8-0.5,1-0.9l0-0.1l2.7-4.4
			c1.2-0.2,2.3-0.4,3.2-0.6c1.3-0.3,2.3-0.5,3.1-0.7c0.5-0.1,0.8-0.2,1.1-0.3c0.2,0,0.3-0.1,0.4-0.1c0.1,0,0.2-0.1,0.3-0.1
			c0.1,0,0.2-0.1,0.2-0.1c0.1-0.1,0.9-0.9,2.1-2.1c0.8-0.8,1.6-1.7,1.9-2l5.7-2.6l0.2-0.1L44,13.4c-0.2-0.2-0.4-0.5-0.5-0.7
			c0-0.1-0.1-0.2-0.1-0.2l-0.1-0.1l-0.1,0.1c-2.3,1.1-4.3,2-5.2,2.4c-0.3,0.1-0.4,0.2-0.5,0.2c-0.1,0.1-0.7,0.7-2.4,2.3
			c-0.7,0.7-1.3,1.3-1.4,1.4c-0.1,0.1-0.3,0.2-0.3,0.3c-0.1,0-0.1,0.1-0.1,0.1h0l0,0c0,0-0.1,0-0.1,0c-0.3,0.1-1,0.3-1.9,0.5
			c-2.9,0.6-7.7,1.5-8.6,1.7c-0.3,0.1-0.6,0.1-0.8,0.1c-0.3,0-0.5,0-0.7-0.1c-0.2-0.1-0.4-0.1-0.5-0.3c-0.2-0.1-0.3-0.3-0.4-0.4
			c-0.2-0.4-0.2-0.8-0.1-1.3c0.1-0.4,0.4-0.7,0.8-0.9l1.5-0.6l5.3-1.9c0.4-0.1,0.6-0.6,0.5-1c-0.1-0.3-0.4-0.5-0.7-0.5
			c-0.1,0-0.2,0-0.3,0l-5.3,1.9l-1.6,0.6l0,0l0,0l0,0c-1.6,0.8-2.2,2.7-1.4,4.3c0.2,0.4,0.5,0.7,0.8,1c0.4,0.3,1,0.5,1.6,0.6
			c0.2,0,0.4,0,0.6,0c0.3,0,0.7,0,1.1-0.1l0.1,0c0.2,0,0.5-0.1,0.7-0.1l-1.9,3.2c-0.1,0.2-0.3,0.3-0.5,0.4c-0.2,0.1-0.4,0.2-0.6,0.2
			c-0.1,0-0.1,0-0.2,0l0.9-1.5c0.1-0.2,0.1-0.4,0.1-0.6c0-0.2-0.2-0.4-0.3-0.5c-0.1-0.1-0.3-0.1-0.4-0.1c-0.3,0-0.5,0.1-0.7,0.4
			l-2.4,3.9c-0.1,0.2-0.3,0.3-0.5,0.4c-0.2,0.1-0.4,0.2-0.6,0.2c-0.1,0-0.2,0-0.3,0l2.7-4.3c0.1-0.2,0.1-0.4,0.1-0.6
			c0-0.2-0.2-0.4-0.3-0.5c-0.1-0.1-0.3-0.1-0.4-0.1c-0.3,0-0.5,0.1-0.7,0.4l-3.1,4.9c0,0-0.1,0.1-0.1,0.1c-0.1,0.1-0.1,0.2-0.2,0.3
			l-0.1,0.1c-0.1,0.2-0.3,0.3-0.5,0.4c-0.2,0.1-0.4,0.2-0.6,0.2c-0.1,0-0.3,0-0.4-0.1c-0.4-0.1-0.7-0.4-0.8-0.7
			c-0.2-0.4-0.2-0.9,0-1.2c0.2-0.3,0.4-0.7,0.6-1.2c1-1.8,2.4-4.6,3.9-7.2c1-1.8,1.9-3.3,2.7-4.4c0.4-0.6,0.8-1.1,1.1-1.5
			c0.2-0.2,0.3-0.3,0.4-0.4c0.1-0.1,0.2-0.2,0.2-0.2c0.1-0.1,0.4-0.2,0.9-0.3c1.6-0.5,11.7-2.7,11.8-2.8l0,0l0,0c0,0,3-1.4,6.6-3.2
			l0.1-0.1L40.1,6c-0.2-0.4-0.4-0.7-0.5-1.1L39.6,4.7L39.6,4.7z"/>
	</g>
</g>
</svg>
