<?xml version="1.0" encoding="utf-8"?>
<!-- Generator: Adobe Illustrator 22.0.1, SVG Export Plug-In . SVG Version: 6.00 Build 0)  -->
<svg version="1.1" id="Layer_1" xmlns="http://www.w3.org/2000/svg" xmlns:xlink="http://www.w3.org/1999/xlink" x="0px" y="0px"
	 viewBox="0 0 43.3 49.2" style="enable-background:new 0 0 43.3 49.2;" xml:space="preserve">
<style type="text/css">
	.st0{fill:#23A2C7;}
</style>
<g>
	<g>
		<circle class="st0" cx="4.9" cy="5.7" r="4.9"/>
	</g>
	<g>
		<g>
			<g>
				<path class="st0" d="M10.2,31.5C9.8,32,8.8,31.9,8,31.1l-3.5-3.5c-0.8-0.8-1.2-2.3-1-3.4l1.9-8.7c0.2-1.1,1.1-2.5,2-3.2l3.1-2.6
					C11.3,9,12.9,8.4,14,8.4h3.2c1.1,0,2.5-0.7,3.2-1.6l3.7-5.2c0.6-0.9,1.6-1.2,2.1-0.7s0.5,1.8,0,2.7l-3.5,6.9
					c-0.5,1-1.8,1.8-2.9,1.8l0,0c-1.1,0-1.4,0.7-0.8,1.6l3.2,4.1c0.7,0.9,2,1.1,3,0.6l4.9-2.8c1-0.5,2.6-0.6,3.6-0.2l7.8,3.5
					c1,0.5,1.4,1.5,1,2.3c-0.5,0.8-1.7,1.2-2.7,0.8l-5.2-2c-1-0.4-2.5-0.1-3.3,0.7l-2.4,2.4c-0.8,0.8-0.7,1.9,0.2,2.5l0.7,0.5
					c0.9,0.6,1.9,2,2.2,3l3.2,11.5c0.3,1.1-0.2,2.2-1.1,2.6c-0.9,0.4-2-0.2-2.5-1.1l-4.4-8.6c-0.5-1-1.6-2.3-2.5-3l-1.9-1.4
					c-0.9-0.6-2.5-1.2-3.6-1.1c-1.1,0-2.5-0.7-3.2-1.5l-5-6.3c-0.7-0.9-1.5-0.7-1.8,0.3l-0.8,2.6c-0.3,1-0.1,2.7,0.4,3.6l1.1,1.9
					C10.5,29.7,10.6,31,10.2,31.5z"/>
			</g>
		</g>
	</g>
</g>
<g>
	<path class="st0" d="M12,49c-1-0.1-1.9-0.5-2.9-1.3l-0.9,0.8c-0.2,0.2-0.5,0.3-0.7,0.3c-0.3,0-0.5-0.1-0.7-0.4
		c-0.2-0.2-0.3-0.5-0.3-0.7c0-0.3,0.1-0.5,0.4-0.7l0.9-0.8c-0.4-0.6-0.8-1.2-1-1.9c-0.3-0.7-0.4-1.3-0.4-2c0-0.2,0-0.4,0.1-0.5
		c0.1-0.1,0.2-0.3,0.3-0.4c0.2-0.2,0.4-0.3,0.7-0.3c0.3,0,0.5,0.1,0.6,0.2c0.1,0.1,0.1,0.2,0.2,0.3c0,0.1,0.1,0.3,0.1,0.5
		c0.1,0.7,0.3,1.3,0.5,1.9c0.2,0.5,0.6,1.1,1,1.5c0.6,0.6,1.1,1,1.7,1.2c0.6,0.1,1.1,0,1.5-0.4c0.3-0.2,0.4-0.5,0.4-0.9
		c0-0.3-0.1-0.7-0.2-1.1c-0.1-0.4-0.4-0.9-0.7-1.5c-0.4-0.9-0.8-1.6-1-2.2c-0.2-0.6-0.3-1.3-0.2-1.9c0.1-0.7,0.5-1.3,1.1-1.8
		c0.8-0.7,1.7-1,2.7-0.9c1,0.1,2,0.5,2.9,1.3l0.9-0.8c0.2-0.2,0.5-0.3,0.7-0.3c0.3,0,0.5,0.1,0.7,0.4c0.2,0.2,0.3,0.5,0.3,0.7
		c0,0.3-0.1,0.5-0.4,0.7l-0.9,0.8c0.7,1.1,1.1,2.2,1.1,3.4c0,0.4-0.1,0.7-0.4,0.9c-0.2,0.2-0.4,0.3-0.7,0.3c-0.3,0-0.5-0.1-0.6-0.2
		c-0.1-0.1-0.1-0.2-0.2-0.3c0-0.1-0.1-0.3-0.1-0.5c-0.1-0.6-0.2-1.2-0.3-1.7c-0.2-0.5-0.5-0.9-0.9-1.4c-0.5-0.6-1.1-1-1.6-1.1
		c-0.6-0.1-1.1,0-1.6,0.4c-0.3,0.3-0.5,0.6-0.5,1c0,0.4,0,0.8,0.2,1.2c0.2,0.4,0.4,0.9,0.7,1.6c0.4,0.9,0.8,1.6,1,2.2
		c0.2,0.6,0.3,1.2,0.2,1.9c-0.1,0.6-0.5,1.2-1.1,1.8C13.8,48.7,13,49,12,49z"/>
</g>
</svg>
