<?xml version="1.0" encoding="utf-8"?>
<!-- Generator: Adobe Illustrator 22.0.1, SVG Export Plug-In . SVG Version: 6.00 Build 0)  -->
<svg version="1.1" id="Layer_1" xmlns="http://www.w3.org/2000/svg" xmlns:xlink="http://www.w3.org/1999/xlink" x="0px" y="0px"
	 viewBox="0 0 28.2 55.9" style="enable-background:new 0 0 28.2 55.9;" xml:space="preserve">
<style type="text/css">
	.st0{fill:#95BB3B;}
	.st1{fill:#FFFFFF;}
</style>
<g>
	<g>
		<path class="st0" d="M3.8,28.6c1.2,1.6,2.4,3.1,3.4,4.7c0.4,0.6,0.7,1.3,0.7,2c0.1,5.7,0,11.5,0,17.2c0,0.5,0,1,0.2,1.5
			c0.5,1.3,1.8,2.1,3.2,1.9c1.4-0.2,2.4-1.5,2.4-3.1c0-6.4,0-12.9,0-19.3c0-0.5,0-1,0-1.5c1.2-0.3,1,0.6,1,1.1c0,6.2,0,12.5,0,18.7
			c0,0.6,0,1.2,0.1,1.8c0.2,1.3,1.3,2.2,2.6,2.3s2.5-0.7,2.9-1.9c0.2-0.6,0.2-1.3,0.2-1.9c0-5.5,0-11,0-16.5c0-0.7,0.2-1.4,0.5-1.9
			c1-1.5,2-2.9,3.1-4.3c0.3-0.3,0.9-0.6,1.3-0.5c1.3,0.1,2.1-0.5,2.3-1.7c0.2-1.2,0.4-2.4,0.5-3.6c0.4-5.9-3.3-10.8-9.1-11.3
			C15.8,12,12.4,12,9,12.3c-4.6,0.4-8,3.5-8.8,7.9c-0.4,2.1-0.1,4.3,0.1,6.5C0.8,28.6,1.6,29,3.8,28.6z M14.2,0
			c-3,0-5.3,2.3-5.3,5.3s2.4,5.3,5.3,5.3c2.8,0,5.2-2.4,5.3-5.3C19.6,2.4,17.2,0,14.2,0z"/>
	</g>
	<g>
		<path class="st1" d="M7.8,16.4c0,4.3,0,8.4,0,12.8c-1.1-0.5-2-0.9-2.9-1.4c-0.2-0.1-0.4-0.3-0.4-0.5c-0.1-2.2-0.4-4.5-0.2-6.7
			C4.5,18.7,5.8,17.3,7.8,16.4z"/>
	</g>
	<g>
		<path class="st1" d="M20.7,29.2c0-4.4,0-8.5,0-12.7c2.2,0.6,3.8,2.7,3.9,5.5c0.1,1.7-0.3,3.5-0.5,5.2c0,0.2-0.3,0.5-0.5,0.6
			C22.7,28.3,21.8,28.7,20.7,29.2z"/>
	</g>
	<g>
		<g>
			<path class="st0" d="M14.2,0c2.9,0,5.4,2.4,5.3,5.3c0,2.8-2.4,5.2-5.3,5.3c-2.9,0-5.3-2.4-5.3-5.3C8.9,2.3,11.2,0,14.2,0z"/>
		</g>
	</g>
</g>
</svg>
