<?xml version="1.0" encoding="utf-8"?>
<!-- Generator: Adobe Illustrator 22.0.1, SVG Export Plug-In . SVG Version: 6.00 Build 0)  -->
<svg version="1.1" id="Warstwa_1" xmlns="http://www.w3.org/2000/svg" xmlns:xlink="http://www.w3.org/1999/xlink" x="0px" y="0px"
	 viewBox="0 0 151.5 167.1" style="enable-background:new 0 0 151.5 167.1;" xml:space="preserve">
<style type="text/css">
	.st0{fill:#95BB3B;}
	.st1{clip-path:url(#SVGID_2_);}
	.st2{fill:#FFFFFF;}
</style>
<g>
	<g>
		<path class="st0" d="M45.3,75c-3.1,0-5.6-2.5-5.6-5.6s2.5-5.6,5.6-5.6s5.6,2.5,5.6,5.6S48.5,75,45.3,75z M45.3,66.1
			c-1.8,0-3.2,1.4-3.2,3.2c0,1.8,1.4,3.2,3.2,3.2s3.2-1.4,3.2-3.2C48.6,67.5,47.2,66.1,45.3,66.1z"/>
		<path class="st0" d="M45.3,75.4c-3.4,0-6-2.7-6-6s2.7-6,6-6s6,2.7,6,6S48.7,75.4,45.3,75.4z M45.3,64.1c-2.9,0-5.2,2.3-5.2,5.2
			c0,2.9,2.3,5.2,5.2,5.2s5.2-2.3,5.2-5.2C50.6,66.4,48.3,64.1,45.3,64.1z M45.3,73c-2.1,0-3.7-1.6-3.7-3.7s1.6-3.7,3.7-3.7
			s3.7,1.6,3.7,3.7S47.4,73,45.3,73z M45.3,66.5c-1.6,0-2.8,1.2-2.8,2.8c0,1.6,1.2,2.8,2.8,2.8s2.8-1.2,2.8-2.8
			C48.2,67.7,46.9,66.5,45.3,66.5z"/>
	</g>
</g>
<g>
	<g>
		<path class="st0" d="M45,85.6c-2.3,0-4.2-1.9-4.2-4.2s1.9-4.2,4.2-4.2s4.2,1.9,4.2,4.2S47.2,85.6,45,85.6z M45,79.8
			c-1,0-1.7,0.8-1.7,1.7s0.8,1.7,1.7,1.7c1,0,1.7-0.8,1.7-1.7S45.9,79.8,45,79.8z"/>
		<path class="st0" d="M45,86.1c-2.5,0-4.6-2.1-4.6-4.6s2.1-4.6,4.6-4.6s4.6,2.1,4.6,4.6S47.5,86.1,45,86.1z M45,77.7
			c-2,0-3.8,1.7-3.8,3.8c0,2,1.7,3.8,3.8,3.8c2,0,3.8-1.7,3.8-3.8C48.7,79.4,47,77.7,45,77.7z M45,83.7c-1.2,0-2.1-1-2.1-2.1
			c0-1.2,1-2.1,2.1-2.1s2.1,1,2.1,2.1C47.1,82.7,46.1,83.7,45,83.7z M45,80.2c-0.7,0-1.3,0.6-1.3,1.3c0,0.7,0.6,1.3,1.3,1.3
			c0.7,0,1.3-0.6,1.3-1.3C46.3,80.8,45.7,80.2,45,80.2z"/>
	</g>
</g>
<g>
	<g>
		<path class="st0" d="M51.6,92.5c-1.8,0-3.3-1.5-3.3-3.3s1.5-3.3,3.3-3.3c1.8,0,3.3,1.5,3.3,3.3S53.4,92.5,51.6,92.5z M51.6,87.7
			c-0.8,0-1.4,0.7-1.4,1.4s0.7,1.4,1.4,1.4s1.4-0.7,1.4-1.4S52.4,87.7,51.6,87.7z"/>
		<path class="st0" d="M51.6,92.9c-2,0-3.8-1.7-3.8-3.8s1.7-3.8,3.8-3.8s3.8,1.7,3.8,3.8S53.7,92.9,51.6,92.9z M51.6,86.2
			c-1.6,0-2.9,1.3-2.9,2.9c0,1.6,1.3,2.9,2.9,2.9c1.6,0,2.9-1.3,2.9-2.9C54.6,87.6,53.2,86.2,51.6,86.2z M51.6,91
			c-1,0-1.8-0.8-1.8-1.8c0-1,0.8-1.8,1.8-1.8c1,0,1.8,0.8,1.8,1.8C53.5,90.2,52.6,91,51.6,91z M51.6,88.2c-0.5,0-1,0.5-1,1
			c0,0.5,0.5,1,1,1c0.5,0,1-0.5,1-1C52.6,88.6,52.2,88.2,51.6,88.2z"/>
	</g>
</g>
<g>
	<g>
		<g>
			<path class="st0" d="M72.9,69.1c-18.8,0-34.1-15.3-34.1-34.1S54.1,1,72.9,1s34.1,15.3,34.1,34.1S91.7,69.1,72.9,69.1z M72.9,3.4
				c-17.5,0-31.7,14.2-31.7,31.7s14.2,31.7,31.7,31.7s31.7-14.2,31.7-31.7S90.3,3.4,72.9,3.4z"/>
			<path class="st0" d="M72.9,70.2c-19.4,0-35.1-15.7-35.1-35.1S53.5,0,72.9,0S108,15.7,108,35.1S92.2,70.2,72.9,70.2z M72.9,2.1
				c-18.2,0-33,14.8-33,33s14.8,33,33,33s33-14.8,33-33S91.1,2.1,72.9,2.1z M72.9,67.8c-18,0-32.7-14.7-32.7-32.7S54.8,2.4,72.9,2.4
				s32.7,14.7,32.7,32.7S90.9,67.8,72.9,67.8z M72.9,4.5C56,4.5,42.3,18.2,42.3,35.1S56,65.7,72.9,65.7s30.6-13.7,30.6-30.6
				S89.8,4.5,72.9,4.5z"/>
		</g>
	</g>
</g>
<g>
	<g>
		<defs>
			<path id="SVGID_1_" d="M151.5,110.8l-75.7,56.3L0,110.8c0,0,33.9-104.4,75.7-104.4S151.5,110.8,151.5,110.8z"/>
		</defs>
		<clipPath id="SVGID_2_">
			<use xlink:href="#SVGID_1_"  style="overflow:visible;"/>
		</clipPath>
		<g class="st1">
			<g>
				<g>
					<g>
						<path class="st0" d="M75.7,167.1c0,0,37.2-27.7,37.6-27.9c-2.5-9.7-8.4-16.5-20.6-17.6c-11.4-1-23.1-1-34.7,0
							c-12.5,1-16.4,7.9-18.9,18.2C39.5,139.4,75.7,167.1,75.7,167.1 M75.8,82.6c-9.7,0-17.1,7.4-17.1,17.1s7.8,17.1,17.1,17.1
							c9,0,16.7-7.8,17.1-17.1C93.3,90.4,85.5,82.6,75.8,82.6z"/>
					</g>
				</g>
			</g>
			<g>
				<g>
					<g>
						<g>
							<circle class="st2" cx="75.4" cy="132.2" r="4.1"/>
						</g>
					</g>
				</g>
				<g>
					<g>
						<g>
							<polygon class="st2" points="72.9,138.4 78.6,138.4 82.4,155.2 75.7,160 69.1,155.2 							"/>
						</g>
					</g>
				</g>
			</g>
		</g>
	</g>
</g>
<g>
	<g>
		<path class="st0" d="M71.8,41.5c-0.3-0.4-0.5-0.9-0.5-1.5c0-1.7,0.3-3.2,0.9-4.4c0.6-1.2,1.5-2.5,2.7-3.9c0.9-1.1,1.6-2.1,2.1-2.8
			c0.4-0.7,0.7-1.6,0.7-2.5c0-1-0.4-1.9-1.1-2.5c-0.8-0.6-1.8-0.9-3.1-0.9c-1.1,0-2.2,0.2-3.2,0.7c-1,0.5-2.2,1.2-3.6,2.1
			c-0.8,0.4-1.4,0.7-1.9,0.7c-0.5,0-1-0.2-1.4-0.7c-0.4-0.5-0.6-1.1-0.6-1.7c0-0.9,0.4-1.6,1.1-2.2c1.3-1.1,2.9-2,4.6-2.6
			c1.8-0.6,3.6-1,5.4-1c1.9,0,3.6,0.3,5.1,1c1.5,0.7,2.6,1.6,3.5,2.7c0.8,1.2,1.2,2.5,1.2,4c0,1.6-0.4,3-1.2,4.2
			c-0.8,1.2-1.9,2.6-3.4,4.1c-1.3,1.3-2.2,2.4-2.9,3.3c-0.6,0.9-1,1.9-1.2,3c-0.1,0.5-0.3,0.9-0.6,1.1c-0.3,0.3-0.7,0.4-1.2,0.4
			C72.6,42.1,72.1,41.9,71.8,41.5z M70.7,50.9c-0.7-0.7-1-1.5-1-2.5c0-1,0.3-1.8,1-2.5c0.7-0.7,1.5-1,2.5-1c1,0,1.8,0.3,2.5,1
			c0.7,0.7,1,1.5,1,2.5c0,1-0.3,1.8-1,2.5c-0.7,0.7-1.5,1-2.5,1C72.2,51.9,71.4,51.6,70.7,50.9z"/>
	</g>
</g>
</svg>
