<?xml version="1.0" encoding="utf-8"?>
<!-- Generator: Adobe Illustrator 22.0.1, SVG Export Plug-In . SVG Version: 6.00 Build 0)  -->
<svg version="1.1" id="Warstwa_1" xmlns="http://www.w3.org/2000/svg" xmlns:xlink="http://www.w3.org/1999/xlink" x="0px" y="0px"
	 viewBox="0 0 50 96.5" style="enable-background:new 0 0 50 96.5;" xml:space="preserve">
<style type="text/css">
	.st0{clip-path:url(#SVGID_2_);}
	.st1{fill:#23A2C7;enable-background:new    ;}
	.st2{opacity:0.39;}
	.st3{fill:url(#SVGID_3_);}
	.st4{fill:url(#SVGID_4_);}
	.st5{fill:url(#SVGID_5_);}
	.st6{fill:url(#SVGID_6_);}
	.st7{fill:url(#SVGID_7_);}
	.st8{fill:#EFCECE;}
	.st9{opacity:0.64;fill:url(#SVGID_8_);enable-background:new    ;}
	.st10{fill:#FFFFFF;}
	.st11{opacity:0.5;enable-background:new    ;}
	.st12{fill:none;stroke:#3EBCFE;stroke-width:0.35;stroke-miterlimit:10;}
	.st13{enable-background:new    ;}
	.st14{fill:#23A2C7;}
</style>
<g>
	<defs>
		<circle id="SVGID_1_" cx="25" cy="71.5" r="25"/>
	</defs>
	<clipPath id="SVGID_2_">
		<use xlink:href="#SVGID_1_"  style="overflow:visible;"/>
	</clipPath>
	<g class="st0">
		<g id="Layer_2">
			<g id="Layer_1-2">
				<circle class="st1" cx="25" cy="71.5" r="25"/>
				<g class="st2">
					<radialGradient id="SVGID_3_" cx="25.6785" cy="60.1659" r="20.0798" gradientUnits="userSpaceOnUse">
						<stop  offset="1.025641e-02" style="stop-color:#FFFFFF"/>
						<stop  offset="0.8359" style="stop-color:#FFFFFF;stop-opacity:0"/>
					</radialGradient>
					<polygon class="st3" points="25.7,71.5 25.7,71.5 25.7,71.5 51.7,58.8 44.7,48.8 25.7,71.5 6.6,48.8 -0.4,58.8 25.7,71.5 
						25.6,71.5 					"/>
					<radialGradient id="SVGID_4_" cx="39.211" cy="72.8209" r="9.9562" gradientUnits="userSpaceOnUse">
						<stop  offset="1.025641e-02" style="stop-color:#FFFFFF"/>
						<stop  offset="0.8359" style="stop-color:#FFFFFF;stop-opacity:0"/>
					</radialGradient>
					<polygon class="st4" points="52.7,68.8 25.7,71.8 51.7,76.8 					"/>
					<radialGradient id="SVGID_5_" cx="37.211" cy="81.8209" r="10.7761" gradientUnits="userSpaceOnUse">
						<stop  offset="1.025641e-02" style="stop-color:#FFFFFF"/>
						<stop  offset="0.8359" style="stop-color:#FFFFFF;stop-opacity:0"/>
					</radialGradient>
					<polygon class="st5" points="48.7,85.8 25.7,71.8 43.7,91.8 					"/>
					<radialGradient id="SVGID_6_" cx="12.146" cy="72.8209" r="9.9562" gradientUnits="userSpaceOnUse">
						<stop  offset="1.025641e-02" style="stop-color:#FFFFFF"/>
						<stop  offset="0.8359" style="stop-color:#FFFFFF;stop-opacity:0"/>
					</radialGradient>
					<polygon class="st6" points="-0.4,76.8 25.6,71.8 -1.4,68.8 					"/>
					<radialGradient id="SVGID_7_" cx="14.146" cy="81.8209" r="10.7761" gradientUnits="userSpaceOnUse">
						<stop  offset="1.025641e-02" style="stop-color:#FFFFFF"/>
						<stop  offset="0.8359" style="stop-color:#FFFFFF;stop-opacity:0"/>
					</radialGradient>
					<polygon class="st7" points="7.6,91.8 25.6,71.8 2.6,85.8 					"/>
				</g>
				<path d="M16.6,65.5c0,0-1.1,2.5-2.2,2.4c0.6-0.1,0.8,1,2.8,1.6c0.3,0.4-1.5,2.3-1.2,3.8c0.3-0.3,0.4-0.3,2.6-0.7
					s0.9,1.4,0.9,1.4l3.3-1L16.6,65.5z"/>
				<path d="M44.4,94.6l-6.7-14.1c0,0-1.2-2-3-2.1s-1.4-0.2-1.4-0.2s1.8-1.3,0.4-2.4s-2.6-2.7-4.8-2.8c0.1,0.2,0.1-0.6,0.4-2.1
					c-0.1-0.1-8.5-0.2-8.5-0.2c0.2,0.8,0.3,1.7,0.4,2.5c-1.1,0.2-2.2,0.6-3.1,1.2c-1.7,1.6-3.2,2.3-2.3,4.2c2.2,1.6,0.7,1.2,0.7,1.2
					s-1.7,0.7-3.2,1.4s-1.7,2-2.5,4.2S7.1,95.6,7.1,95.6c1.2,2.1,2.6,4.1,4.3,5.9c0.5,1,0.6,2.2,0.3,3.3l1.8,1.2l0.8,2.7l2.8,0.2
					l6.1,1.8l9.5-0.2l3.5-2.1l-0.8-1.6l3.5-1.8l-0.8-2.7C40.9,100.3,43,97.6,44.4,94.6z"/>
				<path d="M30.4,105.5l-13.7,0.2h0"/>
				<path id="Shape_26_copy_1_" d="M18.5,105.5l13.7,0.2h0"/>
				<g id="AURI">
					<path d="M16.5,57.2l-2.1-0.4l-1.9,1.8c-0.6,0.6-0.8,1.4-0.6,2.1c0.2,1.6,0.6,3.2,0.6,3.2c0.2,0.6,0.7,1.1,1.3,1.4
						c0.9,0.3,2.4,0.7,2.4,0.7c0.2,0.1,0.5,0,0.6-0.3c0-0.1,0-0.2,0-0.3c-0.2-1.5-0.2-3-0.2-4.5C16.6,58.8,16.5,58.1,16.5,57.2z"/>
					<path id="Shape_5_copy" d="M32.6,56.8l2-0.4l1.9,1.8c0.6,0.6,0.8,1.4,0.6,2.1c-0.2,1.6-0.6,3.2-0.6,3.2
						c-0.2,0.6-0.7,1.1-1.2,1.4c-0.9,0.3-2.4,0.7-2.4,0.7c-0.2,0.1-0.5,0-0.6-0.3c0-0.1,0-0.2,0-0.3c0,0,0.3-3.3,0.2-4.5
						C32.5,59.2,32.5,58,32.6,56.8z"/>
					<circle cx="13.1" cy="57.4" r="1.5"/>
					<path id="Ellipse_1_copy" d="M36,55.9c0.8,0,1.5,0.7,1.5,1.5c0,0.8-0.7,1.5-1.5,1.5c-0.8,0-1.5-0.7-1.5-1.5v0
						C34.5,56.6,35.2,55.9,36,55.9z"/>
					<path d="M12.4,56.4c0.5-2.9,1.4-5.6,2.7-8.2c0.7-0.9,1.6-1.6,2.6-2l0.6-0.8c2-0.9,4.1-1.4,6.3-1.4c0.2,0,0,2.8,0,2.8
						c-1.2,0.1-2.3,0.2-3.5,0.3c-0.8-0.1-1.6-0.1-2.4,0c-0.8,0.3-1.6,0.7-2.2,1.4c-1.7,2.5-2.7,5.4-3.1,8.3
						C13.5,56.9,12.4,56.4,12.4,56.4z"/>
					<path id="Shape_6_copy" d="M36.9,56.4c-0.5-2.9-1.4-5.6-2.7-8.2c-0.7-0.9-1.6-1.6-2.6-2l-0.6-0.8c-2-0.9-4.1-1.4-6.3-1.4
						c-0.2,0,0,2.8,0,2.8c1.2,0.1,2.3,0.2,3.5,0.3c0.8-0.1,1.6-0.1,2.4,0c0.8,0.3,1.6,0.7,2.2,1.4c1.7,2.5,2.7,5.4,3.1,8.3
						C35.8,56.9,36.9,56.4,36.9,56.4z"/>
					<path d="M34.3,65.1l0.4,1.9h1l0.2-2.3L34.3,65.1z"/>
					<path d="M34.9,66.8h0.4v23.4h-0.4V66.8z"/>
				</g>
				<path class="st8" d="M21.2,71.1c0,0,0.2,2.9,0.2,4.8c0,0.6,0.2,1.1,0.4,1.6c0.5,0.8,3,3.6,3.2,5c0.1,0,0.3,0,0.4,0
					c0.6-1.1,1.3-2.2,2.1-3.2c0.7-0.7,1.4-1.3,2.3-1.8c0,0-1.2-0.9-0.8-4.8c0.4-4,0.6-2.9,0.6-2.9L21.2,71.1z"/>
				
					<linearGradient id="SVGID_8_" gradientUnits="userSpaceOnUse" x1="25.261" y1="42.8809" x2="25.261" y2="37.5009" gradientTransform="matrix(1 0 0 -1 0 113.6417)">
					<stop  offset="0" style="stop-color:#742626"/>
					<stop  offset="1" style="stop-color:#EFCECE"/>
				</linearGradient>
				<path class="st9" d="M21.3,73.6l-0.2-2.3c1.2,0.6,2.6,1,4,1.1c1.5-0.3,2.9-0.8,4.2-1.6c0,0-0.2,1.6-0.3,1.9S29,73.9,29,73.9
					s-1.7,2.3-3.2,2.3S21.3,73.6,21.3,73.6z"/>
				<path class="st8" d="M16.5,60.2c0,0-0.2,5.4,0.7,7.4c0.9,2.5,6.1,4.7,6.1,4.7s2.7,0.4,3.6,0c2.1-1,3.9-2.4,5.4-4.2
					c1-1.2,0.7-6.9,0.8-8.4s0.4-5.2-2.1-8.2c-3.7-3.5-9.6-3.2-13,0.5c-0.3,0.3-0.5,0.6-0.8,1C16.2,55.1,16.3,57.8,16.5,60.2z"/>
				<g id="CARA">
					<path d="M18.6,61.6c0,0,1-3.2,4-1.8c0.2-0.2,0.5-0.3,0.7-0.5C23.3,59.2,19.3,57.3,18.6,61.6z"/>
					<path id="Shape_8_copy" d="M30.9,61.7c0,0-0.9-3.2-3.9-2c-0.2-0.2-0.5-0.4-0.7-0.6C26.3,59.1,30.3,57.4,30.9,61.7z"/>
					<path d="M15.8,61.4c0.4-1.1,0.8-2.2,0.9-3.4c-0.1-0.9,0.7-3.5,1.4-4s2.1-1.7,2.1-2.3c0.2,0.1,4.6,1.1,6.8,1.7
						c-0.2-1.2-0.6-2.3-0.9-3.4c0,0,4,2.7,4.1,3.4c0.2-0.1-0.6-1.8-2.6-3.8c0.1,0.1,3,2,3.5,4.1c0.4,1.3,0.9,2.6,1.5,3.9
						c0.2,0.8,0.9,3.9,0.9,3.9c0.2-2.4,0.8-4.8,1.6-7.1c1.2-2.8,1.3-7.5,1.3-7.5l-2.4,1.5c1.2-1.3,2.1-2.7,2.8-4.3
						c0.1-0.4,0,0.5-4.2-0.2s-7.3-0.1-9.4,2.7c1.5-2.1,3.6-3.6,6-4.4C28.8,42,18.5,39.4,17,47.3c-0.3,0-0.9-2.2-0.9-2.2
						s-0.5,2.4,0,3.3c0,0.1-2.2-0.7-3.2,1.3c0.5-0.1,1,0,1.5,0.1c-1,1-1.6,2.4-1.6,3.9c0.9,1,1.6,2.2,2.1,3.5
						c-0.2-0.7,0.8,4.4,0.8,4.4"/>
					<path id="Shape_2_copy" class="st10" d="M23,61.5c0-0.7-0.1-1.4-0.4-2.1c0.1,0.1-3.3-1.1-3.8,2C20.2,61.6,21.6,61.6,23,61.5z"
						/>
					<path id="Shape_2_copy_2" class="st10" d="M26.5,61.6c0-0.7,0.1-1.4,0.4-2.1c-0.1,0.1,3.3-1.2,3.8,2.1
						C29.3,61.7,27.9,61.7,26.5,61.6z"/>
					<path d="M24.6,65.1l-1.3-0.6l0.7-0.4h1.7l0.4,0.4L25,65.1H24.6z M26.1,58.7c1.3-1.1,3.1-1.5,4.8-1.1C31.1,57.7,32,59,32,59
						s-3.4-0.6-5.6,0.8c-0.3-0.4-0.6-0.8-0.8-1.2L26.1,58.7z"/>
					<path id="Shape_4_copy" d="M23.5,58.1c-1.5-0.9-3.3-1.1-4.9-0.4c-0.3,0.1-0.9,1.5-0.9,1.5s3.2-1,5.6,0c0.2-0.4,0.5-0.8,0.6-1.3
						L23.5,58.1z"/>
					<path d="M22.4,66.6c1.2-0.4,2.6-0.6,3.9-0.6c0.4,0,0.9,0.3,0.9-0.1c0.2,0,0.8,0.6-0.4,0.8C25.4,66.9,23.9,66.9,22.4,66.6z"/>
					<path class="st11" d="M23.5,68.1c1-0.4,2-0.4,3,0C26,69,24.9,69.2,24,68.7C23.8,68.6,23.6,68.4,23.5,68.1z"/>
					<circle id="Ellipse_2_copy" cx="28.4" cy="60.4" r="1"/>
					<circle id="Ellipse_2_copy_2" cx="21.2" cy="60.4" r="1"/>
				</g>
				<path class="st12" d="M23.3,91.2c0.5,0.4,1.2,0.4,1.7-0.1c0.1-0.2,0.2-0.4,0.3-0.6l1.4-0.5c0.5,0.5,1.2,0.5,1.7,0
					c0.2-0.2,0.3-0.4,0.3-0.6l1.4,1.4c0.5,0.3,1.2,0.3,1.6-0.2c0.3-0.4,0.4-0.9,0.2-1.3l-1.5-3c-0.2-0.6-0.8-1.1-1.4-1.3
					c-0.1-0.2-0.2-0.4-0.3-0.5s-0.7-0.1-0.9-0.1C27,84.7,27,85,27,85l0.1,0.6l-2.4,0.8l0,0l-2.4,0.8l-0.3-0.6c0,0-0.1-0.3-0.9,0
					c-0.2,0.1-0.7,0.3-0.7,0.6s0,0.4,0.1,0.6c-0.4,0.5-0.6,1.2-0.4,1.9l0.6,3.3c0.1,0.5,0.5,0.9,1,0.9c0.6,0.1,1.2-0.2,1.4-0.8
					L23.3,91.2z"/>
				<path class="st12" d="M28.6,91.4"/>
				<path class="st12" d="M30.4,88.3"/>
			</g>
		</g>
	</g>
</g>
<path d="M15.8,61.4c0.4-1.1,0.8-2.2,0.9-3.4c-0.1-0.9,0.7-3.5,1.4-4s2.1-1.7,2.1-2.3c0.2,0.1,4.6,1.1,6.8,1.7
	c-0.2-1.2-0.6-2.3-0.9-3.4c0,0,4,2.7,4.1,3.4c0.2-0.1-0.6-1.8-2.6-3.8c0.1,0.1,3,2,3.5,4.1c0.4,1.3,0.9,2.6,1.5,3.9
	c0.2,0.8,0.9,3.9,0.9,3.9c0.2-2.4,0.8-4.8,1.6-7.1c1.2-2.8,1.3-7.5,1.3-7.5l-2.4,1.5c1.2-1.3,2.1-2.7,2.8-4.3c0.1-0.4,0,0.5-4.2-0.2
	s-7.3-0.1-9.4,2.7c1.5-2.1,3.6-3.6,6-4.4C28.8,42,18.5,39.4,17,47.3c-0.3,0-0.9-2.2-0.9-2.2s-0.5,2.4,0,3.3c0,0.1-2.2-0.7-3.2,1.3
	c0.5-0.1,1,0,1.5,0.1c-1,1-1.6,2.4-1.6,3.9c0.9,1,1.6,2.2,2.1,3.5c-0.2-0.7,0.8,4.4,0.8,4.4"/>
<g class="st13">
	<g id="XMLID_11_">
		<path id="XMLID_12_" class="st14" d="M21.5,0.9c9.3-1.6,18.2,4.6,19.8,13.8c1.6,9.2-4.6,18-13.9,19.6S9.2,29.7,7.6,20.5
			S12.2,2.5,21.5,0.9 M21.4,0.3C11.7,2,5.3,11.1,7,20.7s10.9,16,20.5,14.3s16.1-10.8,14.4-20.4C40.2,5,31-1.4,21.4,0.3L21.4,0.3z"/>
	</g>
	<g id="XMLID_9_">
		<path id="XMLID_10_" class="st14" d="M41.2,28.8c1.1-0.2,2.1,0.5,2.3,1.6c0.2,1.1-0.5,2.1-1.6,2.3s-2.1-0.5-2.3-1.6
			C39.4,30,40.1,29,41.2,28.8 M41.1,28.2c-1.5,0.3-2.4,1.6-2.2,3.1c0.3,1.5,1.6,2.4,3.1,2.2c1.5-0.3,2.4-1.6,2.2-3.1
			S42.5,27.9,41.1,28.2L41.1,28.2z"/>
	</g>
	<g id="XMLID_7_">
		<path id="XMLID_8_" class="st14" d="M43.7,35.4c0.6-0.1,1.2,0.3,1.3,0.9c0.1,0.6-0.3,1.2-0.9,1.3s-1.2-0.3-1.3-0.9
			C42.7,36.1,43.1,35.5,43.7,35.4 M43.6,34.8c-1,0.2-1.6,1.1-1.4,2.1c0.2,1,1.1,1.6,2.1,1.4c1-0.2,1.6-1.1,1.4-2.1
			C45.5,35.2,44.6,34.6,43.6,34.8L43.6,34.8z"/>
	</g>
	<g id="XMLID_4_">
		<path id="XMLID_6_" class="st14" d="M42.5,41c0.2,0,0.5,0.1,0.5,0.4c0,0.2-0.1,0.5-0.4,0.5s-0.5-0.1-0.5-0.4
			C42,41.3,42.2,41.1,42.5,41 M42.3,40.4c-0.6,0.1-1,0.7-0.9,1.3c0.1,0.6,0.7,1,1.3,0.9s1-0.7,0.9-1.3S42.9,40.2,42.3,40.4
			L42.3,40.4z"/>
	</g>
</g>
</svg>
