<?xml version="1.0" encoding="utf-8"?>
<!-- Generator: Adobe Illustrator 21.1.0, SVG Export Plug-In . SVG Version: 6.00 Build 0)  -->
<svg version="1.1" id="Layer_1" xmlns="http://www.w3.org/2000/svg" xmlns:xlink="http://www.w3.org/1999/xlink" x="0px" y="0px"
	 viewBox="0 0 1207 214.8" style="enable-background:new 0 0 1207 214.8;" xml:space="preserve">
<style type="text/css">
	.st0{fill:#878787;}
	.st1{clip-path:url(#SVGID_2_);fill:url(#SVGID_3_);}
</style>
<g>
	<path class="st0" d="M636.9,72.5H629c-2.2,0-4.6,0.9-4.6,3.1v55l-53-57.1c-0.8-0.9-1.5-1-2.7-1h-9.2c-2.2,0-5,0.9-5,3.1V157
		c0,2.2,2.8,5.5,5,5.5h9.9c2.2,0,2.8-3.3,2.8-5.5v-54.9l52.4,58.2c0.8,0.9,2.4,2.2,3.6,2.2h8.7c2.2,0,2.8-3.3,2.8-5.5V75.6
		C639.7,73.4,639.1,72.5,636.9,72.5z"/>
	<path class="st0" d="M810.2,76.5c0-2.2-1.8-4-4-4h-9.8c-2.2,0-4,1.8-4,4v80.9c0,2.2,1.8,4,4,4h9.8c2.2,0,4-1.8,4-4V76.5z"/>
	<path class="st0" d="M942.9,72.5h-86.2c-2.2,0-5,0.9-5,3.1v7.1c0,2.2,2.8,5.2,5,5.2h31.7V157c0,2.2,2.7,5.5,4.9,5.5h9.1
		c2.2,0,3.8-3.3,3.8-5.5V87.9h36.7c2.2,0,2.4-3,2.4-5.2v-7.1C945.3,73.4,945.1,72.5,942.9,72.5z"/>
	<path class="st0" d="M760.3,48.8h-86.2c-2.2,0-4.9,0.8-4.9,3v7.1c0,2.2,2.7,5.3,4.9,5.3H706V157c0,2.2,2.5,5.5,4.7,5.5H721
		c2.2,0,3.9-3.3,3.9-5.5V64.2h35.3c2.2,0,2.6-3.1,2.6-5.3v-7.1C762.9,49.6,762.5,48.8,760.3,48.8z"/>
	<path class="st0" d="M1071.5,146h-67V75.7c0-2.2-0.3-3.1-2.5-3.1h-9.9c-2.2,0-5.4,0.9-5.4,3.1v81.4c0,2.2,3.2,5.5,5.4,5.5h79.4
		c2.2,0,2.9-3.3,2.9-5.5v-8C1074.4,146.9,1073.7,146,1071.5,146z"/>
	<path class="st0" d="M1202.5,85.6c2.2,0,4.5-1.8,4.5-4v-6c0-2.2-2.3-4.3-4.5-4.3h-79.4c-2.2,0-3.7,2.1-3.7,4.3V157
		c0,2.2,1.5,4.3,3.7,4.3h79.4c2.2,0,4.5-2.1,4.5-4.3v-6c0-2.2-2.3-3.9-4.5-3.9h-65.4v-22.5h65.4c2.2,0,4.5-2.1,4.5-4.3v-7.9
		c0-2.2-2.3-4.4-4.5-4.4h-65.4V85.5L1202.5,85.6L1202.5,85.6z"/>
</g>
<g>
	<g>
		<defs>
			<path id="SVGID_1_" d="M171.2,18.7c-8.9,13.9-14.9,30.4-21.1,45.5c-3.3,8.3-6.6,16.5-9.9,24.4c-3.3,8.3-6.6,15.5-9.6,21.8
				c-1.7,3-6.1,14.6-13.9,8.6c-7.6-5.9-12.9-14.5-20.8-20.5c-8.6-6.6-20.8-7.6-31.4-7.9c-15.2-0.3-30.4,0-45.5,0
				c-13.9,0-27.7,33.3-12.2,33.3h37.6c14.5,0,28.7-0.3,38.9,11.6c6.6,7.6,16.2,19.8,26.7,21.1c7.3,1,12.5-1.6,18.1-6.3
				c12.5-10.2,20.8-27.1,27.4-41.3c7.6-16.5,14.4-34.4,21.5-50.8c10.3-24.2,14.5-33.2,24-1.4c4.9,16.3,20.4,61.3,35.1,99.1
				c11.2,28.6,22.1,53.3,30.9,57.1c20.4,8.8,31.9-16.6,42.9-36.7c18.2-33.3,33.6-77.1,37.8-77.1c6.7,0,21.8,20.1,34.3,23.4
				c13.2,3.6,25.1,2,38.6,2h27.1c13.9,0,27.7-33.3,12.2-33.3H413c-10.6,0-19.8,0.3-29-5.6c-10.6-6.9-16.2-15.8-28.7-19.8
				c-15.5-4.6-23.1,13.8-29.7,25.7c-8.3,14.9-41.3,94.5-46.4,94.5s-32.6-72.9-45-109.9C221.4,37.8,209.9,0,195.3,0
				C182.9-0.1,173.8,14.6,171.2,18.7"/>
		</defs>
		<clipPath id="SVGID_2_">
			<use xlink:href="#SVGID_1_"  style="overflow:visible;"/>
		</clipPath>
		
			<linearGradient id="SVGID_3_" gradientUnits="userSpaceOnUse" x1="779.4645" y1="85.0158" x2="782.7649" y2="85.0158" gradientTransform="matrix(141.2688 0 0 -141.2688 -110113.9688 12119.5264)">
			<stop  offset="0" style="stop-color:#0D1F32"/>
			<stop  offset="9.900990e-02" style="stop-color:#1C3455"/>
			<stop  offset="0.2452" style="stop-color:#007CCC"/>
			<stop  offset="0.2821" style="stop-color:#0085D4"/>
			<stop  offset="0.3578" style="stop-color:#459FE9"/>
			<stop  offset="0.4084" style="stop-color:#6EB2F9"/>
			<stop  offset="0.4997" style="stop-color:#67F1FF"/>
			<stop  offset="0.5058" style="stop-color:#67F5FF"/>
			<stop  offset="0.5277" style="stop-color:#69E9FF"/>
			<stop  offset="0.567" style="stop-color:#6CC9FB"/>
			<stop  offset="0.5916" style="stop-color:#6EB2F9"/>
			<stop  offset="0.6601" style="stop-color:#3199E2"/>
			<stop  offset="0.7223" style="stop-color:#0080CC"/>
			<stop  offset="0.7463" style="stop-color:#0077BA"/>
			<stop  offset="0.8553" style="stop-color:#124773"/>
			<stop  offset="0.9059" style="stop-color:#1C3455"/>
			<stop  offset="0.9901" style="stop-color:#0D1F32"/>
			<stop  offset="1" style="stop-color:#0D1F32"/>
		</linearGradient>
		<rect x="-8.7" y="-0.1" class="st1" width="484.2" height="219.1"/>
	</g>
</g>
</svg>
