<?xml version="1.0" encoding="utf-8"?>
<!-- Generator: Adobe Illustrator 21.1.0, SVG Export Plug-In . SVG Version: 6.00 Build 0)  -->
<svg version="1.1" id="Layer_1" xmlns="http://www.w3.org/2000/svg" xmlns:xlink="http://www.w3.org/1999/xlink" x="0px" y="0px"
	 viewBox="0 0 121 311" style="enable-background:new 0 0 121 311;" xml:space="preserve">
<style type="text/css">
	.st0{fill:none;enable-background:new    ;}
	.st1{fill:#EDD7B7;}
	.st2{opacity:0.64;fill:url(#SVGID_1_);enable-background:new    ;}
	.st3{fill:url(#SVGID_2_);stroke:url(#SVGID_3_);}
	.st4{fill:#FFFFFF;}
	.st5{opacity:0.5;enable-background:new    ;}
	.st6{clip-path:url(#SVGID_5_);fill:url(#SVGID_6_);}
</style>
<path d="M33.2,75.2c0,0-3.5,7.9-7,7.6c1.9-0.3,2.4,3.3,8.7,4.9c0.8,1.4-4.6,7.3-3.8,11.9c0.8-0.8,1.4-0.8,8.1-2.2s2.7,4.3,2.7,4.3
	l10.3-3.3L33.2,75.2z"/>
<path d="M121,167.3l-21.2-44.6c0,0-3.8-6.3-9.4-6.5s-4.3-0.7-4.3-0.7s5.6-4,1.1-7.5S79,99.5,72,99.3c0.2,0.5,0.2-2,1.4-6.8
	c-0.4-0.2-26.7-0.7-26.7-0.7c0.7,2.6,1.1,5.2,1.1,7.9c0.2,0.5-3.4-0.5-9.7,3.9c-5.4,5-10.1,7.2-7.2,13.3c7,5,2.2,3.9,2.2,3.9
	s-5.4,2.2-10.1,4.3s-5.4,6.3-7.9,13.3s-11.9,32-11.9,32c3.8,6.8,8.3,13.1,13.6,18.8c2.4,4.7,1,10.5,1,10.5l5.8,3.7l2.6,8.4l8.9,0.5
	l19.4,5.7l29.9-0.5l11-6.8l-2.6-5.2l11-5.8l-2.6-8.4C101.1,191.3,114.5,182.7,121,167.3z"/>
<path d="M33.1,202.3L14,302.2L0,311h23.8l-0.5-7.8L51.2,239l25.3-4.7v-32.6L33.1,202.3z"/>
<path id="Shape_26_copy" d="M82.7,202.3l19.1,99.9l14,8.8H92l0.5-7.8L64.6,239l-25.3-4.7v-32.6L82.7,202.3z"/>
<path class="st0" d="z"/>
<g id="AURI">
	<path d="M32.8,49l-6.5-1.4l-6.1,5.7c0,0-2.5,1.8-1.8,6.8s1.8,10,1.8,10s1.1,3.3,4,4.3s7.6,2.2,7.6,2.2c0.7,0.3,1.5-0.1,1.8-0.9
		c0.1-0.3,0.1-0.6,0-0.9c0,0-1-10.3-0.7-14.3C33.2,54.1,32.8,52,32.8,49z"/>
	<path id="Shape_5_copy" d="M83.7,47.9l6.4-1.4l6.1,5.7c0,0,2.5,1.8,1.8,6.8s-1.8,10-1.8,10s-1.1,3.3-3.9,4.3s-7.5,2.1-7.5,2.1
		c-0.7,0.3-1.5-0.1-1.8-0.9c-0.1-0.3-0.1-0.6,0-0.9c0,0,0.9-10.3,0.7-14.3C83.3,53.1,83.7,50.9,83.7,47.9z"/>
	<circle cx="21.9" cy="49.7" r="4.7"/>
	<path id="Ellipse_1_copy" d="M94.4,45.1c2.6,0,4.7,2.1,4.7,4.7c0,2.6-2.1,4.7-4.7,4.7c-2.6,0-4.7-2.1-4.7-4.7
		C89.7,47.2,91.8,45.1,94.4,45.1C94.4,45.1,94.4,45.1,94.4,45.1z"/>
	<path d="M19.9,46.6c1.5-9.1,4.4-17.8,8.6-26c2.2-2.7,5-4.8,8.2-6.2c0-0.1,1.9-2.7,1.9-2.7s6.5-3.9,19.9-4.3c0.7,0,0,8.9,0,8.9
		c0,0-4,0.1-11,1.1c-2.6-0.2-5.1-0.1-7.7,0.1c-2.6,0.9-5,2.3-7,4.3C30.7,24.5,25,34.2,23,48.2C23.2,48.2,19.9,46.6,19.9,46.6z"/>
	<path id="Shape_6_copy" d="M97.1,46.6c-1.5-9.1-4.4-17.8-8.6-26c-2.2-2.7-5-4.8-8.2-6.2c0-0.1-2-2.7-2-2.7s-6.5-3.9-19.9-4.3
		c-0.7,0,0,8.9,0,8.9c0,0,4,0.1,11.1,1.1c2.6-0.2,5.1-0.1,7.7,0.1c2.6,0.9,5,2.3,7,4.3c2.1,2.7,7.8,12.4,9.8,26.4
		C93.8,48.2,97.1,46.6,97.1,46.6z"/>
	<path d="M88.9,74.1l1.1,6.1h3.2l0.7-7.2L88.9,74.1z"/>
	<path d="M90.8,79.5h1.4v74h-1.4V79.5z"/>
</g>
<path class="st1" d="M47.5,93.2c0,0,0.7,9,0.7,15.1c0,1.8,0.5,3.5,1.4,5c1.6,2.5,9.4,11.3,10.1,15.8c0.5-0.1,1-0.1,1.4,0
	c0,0,3.6-6.8,6.5-10.1c2.1-2.2,4.6-4.2,7.2-5.7c0,0-3.9-2.9-2.5-15.1c1.4-12.7,1.8-9,1.8-9L47.5,93.2z"/>
<linearGradient id="SVGID_1_" gradientUnits="userSpaceOnUse" x1="60.3242" y1="220" x2="60.3242" y2="202.9985" gradientTransform="matrix(1 0 0 -1 0 312)">
	<stop  offset="0" style="stop-color:#000000"/>
	<stop  offset="1" style="stop-color:#EDD7B7"/>
</linearGradient>
<path class="st2" d="M48,101l-0.5-7.4c0,0,7.1,3.7,12.5,3.4s13.2-5,13.2-5s-0.7,5-0.8,5.9c-0.1,0.9-0.3,4-0.3,4s-5.4,7.2-10.1,7.1
	S48,101,48,101z"/>
<linearGradient id="SVGID_2_" gradientUnits="userSpaceOnUse" x1="148" y1="228" x2="148" y2="228" gradientTransform="matrix(1 0 0 -1 0 312)">
	<stop  offset="0" style="stop-color:#000000"/>
	<stop  offset="1" style="stop-color:#000000;stop-opacity:0"/>
</linearGradient>
<linearGradient id="SVGID_3_" gradientUnits="userSpaceOnUse" x1="148" y1="228" x2="148" y2="228" gradientTransform="matrix(1 0 0 -1 0 312)">
	<stop  offset="0" style="stop-color:#000000"/>
	<stop  offset="1" style="stop-color:#FFFFFF"/>
</linearGradient>
<path class="st3" d="M148,84"/>
<path class="st1" d="M32.7,58.7c0,0-0.5,16.9,2.1,23.3C37.6,90,54,96.8,54,96.8c0,0,8.6,1.4,11.5,0c6.5-3.1,12.3-7.7,16.9-13.3
	c3.1-3.9,2.3-21.7,2.5-26.6s1.4-16.5-6.5-25.9c-7.6-7.9-29.2-14.2-43.6,4.7C31.8,42.4,32.2,51,32.7,58.7z"/>
<g id="CARA">
	<path d="M39.3,63c0,0,3.1-10.1,12.7-5.8c0.8-0.5,1.5-1.1,2.2-1.7C54.2,55.5,41.6,49.5,39.3,63z"/>
	<path id="Shape_8_copy" d="M78.2,63.2c0,0-2.8-10.2-12.4-6.2c-0.8-0.5-1.5-1.2-2.2-1.8C63.6,55.2,76.4,49.7,78.2,63.2z"/>
	<path d="M30.5,62.3c0,0,3.1-8.1,2.9-10.8s2.2-11,4.3-12.6s6.5-5.4,6.5-7.2c0.5,0.2,14.4,3.4,21.6,5.4c0.5,0.4-2.9-10.8-2.9-10.8
		s12.8,8.4,13,10.8c0.5-0.4-2-5.7-8.3-11.9c0.2,0.4,9.6,6.3,11.2,12.9s4,9.7,4.7,12.2s2.9,12.2,2.9,12.2s1.3-13.5,5-22.3
		s4-23.7,4-23.7l-7.6,4.7c3.6-4,6.5-8.7,8.7-13.7c0.2-1.3,0,1.6-13.3-0.7s-22.9-0.4-29.6,8.6c-0.4,0.2,7.8-11,19.1-14
		C71.6,1.2,39-7,34.5,17.8c-0.9,0-2.9-6.8-2.9-6.8s-1.6,7.5,0,10.4c0,0.2-7-2.2-10.1,4c1.6-0.2,3.2-0.1,4.7,0.4
		c0.4,0-4.3,2.7-5,12.2c0.7,0.3,4.6,5.3,6.5,11.1c-0.7-2.1,2.5,14,2.5,14"/>
	<path id="Shape_2_copy" class="st4" d="M53.3,62.7c0.1-2.2-0.4-4.5-1.4-6.5c0.4,0.2-10.3-3.6-11.9,6.4C40,62.9,44.7,63,53.3,62.7z"
		/>
	<path id="Shape_2_copy_2" class="st4" d="M64.4,62.9c-0.1-2.3,0.4-4.5,1.4-6.6c-0.4,0.2,10.3-3.7,11.9,6.6
		C77.7,63.1,73,63.3,64.4,62.9z"/>
	<path d="M58.3,74.1l-4-1.8l2.2-1.4h5.4l1.4,1.4l-3.6,1.8L58.3,74.1L58.3,74.1z"/>
	<path d="M63,53.9c4.2-3.5,9.9-4.7,15.2-3.4c0.8,0.2,3.4,4.3,3.4,4.3S71,53,64,57.4c-0.4-0.1-2.5-3.8-2.5-3.8L63,53.9z"/>
	<path id="Shape_4_copy" d="M54.7,52.1c-4.7-2.9-10.4-3.3-15.5-1.3c-0.8,0.3-2.8,4.7-2.8,4.7s10.2-3.2,17.8,0.1c0.4-0.2,2-4.1,2-4.1
		L54.7,52.1z"/>
	<path d="M51.5,78.8c0,0,6.4-2.4,12.3-1.8c1.3,0.1,2.8,0.9,2.9-0.4c0.6,0.1,2.5,1.8-1.1,2.5C59.4,80.5,51.5,78.8,51.5,78.8z"/>
	<path class="st5" d="M54.7,83.7c3-1.2,6.4-1.2,9.4,0C63.8,84,59.8,89.6,54.7,83.7z"/>
	<circle id="Ellipse_2_copy" cx="70.4" cy="59.3" r="3.1"/>
	<circle id="Ellipse_2_copy_2" cx="47.7" cy="59.3" r="3.1"/>
</g>
<g>
	<defs>
		<path id="SVGID_4_" d="M53.7,144.4c-1.1,1.7-1.8,3.6-2.5,5.4c-0.4,1-0.8,2-1.2,2.9c-0.4,1-0.8,1.8-1.1,2.6c-0.2,0.4-0.7,1.7-1.7,1
			c-0.9-0.7-1.5-1.7-2.5-2.4c-1-0.8-2.5-0.9-3.7-0.9c-1.8,0-3.6,0-5.4,0c-1.7,0-3.3,4-1.5,4h4.5c1.7,0,3.4,0,4.6,1.4
			c0.8,0.9,1.9,2.4,3.2,2.5c0.9,0.1,1.6-0.3,2.3-0.9c1.5-1.2,2.4-3.2,3.1-4.9c0.9-2,1.6-4,2.4-5.9c0.1-0.1,1.6-5.2,2.7-1.4
			c1,3.4,3.9,12.9,4.6,15.2c0.7,2.1,2.3,5.3,5.1,4.3c0.1,0,0.1,0,0.2-0.1c1.3-0.7,1.8-1.9,2.6-3.4c1.1-2,1.9-4.1,2.8-6.1
			c0.2-0.5,0.4-0.9,0.6-1.4c0.1-0.2,1.1-2.3,1.9-2.3c0.8,0,2.6,2.4,4.1,2.8c1.6,0.4,3,0.2,4.6,0.2h3.2c1.7,0,3.3-4,1.5-4h-5.6
			c-1.3,0-2.4,0-3.5-0.7c-1.3-0.8-1.9-1.9-3.4-2.4c-1.8-0.5-3.2,1.4-4,2.8c-1,1.8-1.7,3.7-2.5,5.6c-0.8,1.9-2.5,5.9-2.9,5.9
			c-0.4,0-1.6-2.4-2-3.6c-0.3-0.9-1.7-5.2-3.1-9.6c-1.5-4.6-3-9-4.5-9C55.1,142.2,54,144,53.7,144.4"/>
	</defs>
	<clipPath id="SVGID_5_">
		<use xlink:href="#SVGID_4_"  style="overflow:visible;"/>
	</clipPath>
	
		<linearGradient id="SVGID_6_" gradientUnits="userSpaceOnUse" x1="-132.8326" y1="190.999" x2="-132.4395" y2="190.999" gradientTransform="matrix(141.2688 0 0 141.2688 18798.4492 -26826.9473)">
		<stop  offset="0" style="stop-color:#0D1F32"/>
		<stop  offset="9.900990e-02" style="stop-color:#1C3455"/>
		<stop  offset="0.2452" style="stop-color:#007CCC"/>
		<stop  offset="0.2821" style="stop-color:#0085D4"/>
		<stop  offset="0.3578" style="stop-color:#459FE9"/>
		<stop  offset="0.4084" style="stop-color:#6EB2F9"/>
		<stop  offset="0.4997" style="stop-color:#67F1FF"/>
		<stop  offset="0.5058" style="stop-color:#67F5FF"/>
		<stop  offset="0.5277" style="stop-color:#69E9FF"/>
		<stop  offset="0.567" style="stop-color:#6CC9FB"/>
		<stop  offset="0.5916" style="stop-color:#6EB2F9"/>
		<stop  offset="0.6601" style="stop-color:#3199E2"/>
		<stop  offset="0.7223" style="stop-color:#0080CC"/>
		<stop  offset="0.7463" style="stop-color:#0077BA"/>
		<stop  offset="0.8553" style="stop-color:#124773"/>
		<stop  offset="0.9059" style="stop-color:#1C3455"/>
		<stop  offset="0.9901" style="stop-color:#0D1F32"/>
		<stop  offset="1" style="stop-color:#0D1F32"/>
	</linearGradient>
	<rect x="32.3" y="142.2" class="st6" width="57.7" height="26.1"/>
</g>
</svg>
