<?xml version="1.0" encoding="utf-8"?>
<!-- Generator: Adobe Illustrator 22.0.1, SVG Export Plug-In . SVG Version: 6.00 Build 0)  -->
<svg version="1.1" id="Layer_1" xmlns="http://www.w3.org/2000/svg" xmlns:xlink="http://www.w3.org/1999/xlink" x="0px" y="0px"
	 viewBox="0 0 484.2 219.1" style="enable-background:new 0 0 484.2 219.1;" xml:space="preserve">
<style type="text/css">
	.st0{clip-path:url(#SVGID_2_);}
	.st1{fill:url(#SVGID_3_);}
</style>
<title>Artboard 1</title>
<g>
	<defs>
		<path id="SVGID_1_" d="M179.9,18.8C171,32.7,165,49.2,158.8,64.3c-3.3,8.3-6.6,16.5-9.9,24.4c-3.3,8.3-6.6,15.5-9.6,21.8
			c-1.7,3-6.1,14.6-13.9,8.6c-7.6-5.9-12.9-14.5-20.8-20.5C96,92,83.8,91,73.2,90.7c-15.2-0.3-30.4,0-45.5,0
			C13.8,90.7,0,124,15.5,124h37.6c14.5,0,28.7-0.3,38.9,11.6c6.6,7.6,16.2,19.8,26.7,21.1c7.3,1,12.5-1.6,18.1-6.3
			c12.5-10.2,20.8-27.1,27.4-41.3c7.6-16.5,14.4-34.4,21.5-50.8c10.3-24.2,14.5-33.2,24-1.4c4.9,16.3,20.4,61.3,35.1,99.1
			c11.2,28.6,22.1,53.3,30.9,57.1c20.4,8.8,31.9-16.6,42.9-36.7c18.2-33.3,33.6-77.1,37.8-77.1c6.7,0,21.8,20.1,34.3,23.4
			c13.2,3.6,25.1,2,38.6,2h27.1c13.9,0,27.7-33.3,12.2-33.3h-46.9c-10.6,0-19.8,0.3-29-5.6C382.1,78.9,376.5,70,364,66
			c-15.5-4.6-23.1,13.8-29.7,25.7c-8.3,14.9-41.3,94.5-46.4,94.5s-32.6-72.9-45-109.9C230.1,37.9,218.6,0.1,204,0.1
			C191.6,0,182.5,14.7,179.9,18.8"/>
	</defs>
	<clipPath id="SVGID_2_">
		<use xlink:href="#SVGID_1_"  style="overflow:visible;"/>
	</clipPath>
	<g class="st0">
		
			<linearGradient id="SVGID_3_" gradientUnits="userSpaceOnUse" x1="351.236" y1="429.2107" x2="354.546" y2="429.2107" gradientTransform="matrix(141.27 0 0 141.27 -49610.5664 -60525.0469)">
			<stop  offset="0" style="stop-color:#0D1F32"/>
			<stop  offset="0.1" style="stop-color:#1C3455"/>
			<stop  offset="0.25" style="stop-color:#007CCC"/>
			<stop  offset="0.28" style="stop-color:#0085D4"/>
			<stop  offset="0.36" style="stop-color:#459FE9"/>
			<stop  offset="0.41" style="stop-color:#6EB2F9"/>
			<stop  offset="0.5" style="stop-color:#67F1FF"/>
			<stop  offset="0.51" style="stop-color:#67F5FF"/>
			<stop  offset="0.53" style="stop-color:#69E9FF"/>
			<stop  offset="0.57" style="stop-color:#6CC9FB"/>
			<stop  offset="0.59" style="stop-color:#6EB2F9"/>
			<stop  offset="0.66" style="stop-color:#3199E2"/>
			<stop  offset="0.72" style="stop-color:#0080CC"/>
			<stop  offset="0.75" style="stop-color:#0077BA"/>
			<stop  offset="0.86" style="stop-color:#124773"/>
			<stop  offset="0.91" style="stop-color:#1C3455"/>
			<stop  offset="0.99" style="stop-color:#0D1F32"/>
			<stop  offset="1" style="stop-color:#0D1F32"/>
		</linearGradient>
		<rect class="st1" width="484.2" height="219.1"/>
	</g>
</g>
</svg>
