<?xml version="1.0" standalone="no"?>
<!DOCTYPE svg PUBLIC "-//W3C//DTD SVG 20010904//EN"
 "http://www.w3.org/TR/2001/REC-SVG-20010904/DTD/svg10.dtd">
<svg version="1.0" xmlns="http://www.w3.org/2000/svg"
 width="310.000000pt" height="310.000000pt" viewBox="0 0 310.000000 310.000000"
 preserveAspectRatio="xMidYMid meet">
<metadata>
Created by potrace 1.11, written by Peter Selinger 2001-2013
</metadata>
<g transform="translate(0.000000,310.000000) scale(0.100000,-0.100000)"
fill="#000000" stroke="none">
<path d="M1299 2395 c-3 -2 -17 -6 -33 -9 -16 -3 -33 -11 -38 -18 -4 -7 -8
-10 -8 -6 0 8 -64 -54 -92 -89 -9 -12 -14 -24 -11 -27 4 -3 1 -6 -5 -6 -7 0
-12 -7 -12 -15 0 -8 -4 -15 -10 -15 -5 0 -10 -7 -10 -15 0 -8 -5 -15 -11 -15
-5 0 -7 -4 -4 -10 3 -5 1 -10 -5 -10 -6 0 -8 -4 -5 -10 3 -5 2 -10 -3 -10 -5
0 -9 -7 -10 -15 -1 -8 -3 -22 -4 -30 -1 -8 -5 -12 -10 -9 -7 5 -12 -10 -9 -28
0 -5 -4 -8 -10 -8 -5 0 -8 -4 -4 -9 3 -5 1 -12 -5 -16 -5 -3 -10 -17 -10 -31
0 -14 -4 -22 -10 -19 -6 3 -10 -5 -10 -19 0 -14 -5 -28 -10 -31 -6 -4 -8 -11
-5 -16 4 -5 1 -9 -4 -9 -6 0 -11 -9 -11 -20 0 -11 -4 -20 -10 -20 -5 0 -10 -5
-10 -11 0 -5 6 -7 13 -3 6 4 4 -2 -6 -13 -9 -11 -14 -23 -10 -26 3 -4 1 -7 -5
-7 -7 0 -11 -3 -10 -7 2 -10 -10 -41 -28 -74 -7 -14 -11 -29 -7 -33 3 -3 1 -6
-5 -6 -7 0 -11 -3 -11 -7 3 -20 -2 -34 -11 -28 -6 4 -7 -1 -3 -11 4 -10 0 -20
-12 -26 -14 -8 -15 -12 -4 -19 10 -6 11 -9 2 -9 -7 0 -13 -6 -13 -14 0 -8 -5
-16 -10 -18 -6 -2 -12 -13 -13 -25 0 -12 -5 -19 -9 -17 -4 3 -8 -1 -8 -9 0
-31 -28 -24 -73 18 -26 24 -47 45 -47 48 0 8 -60 67 -69 67 -3 0 -13 9 -21 19
-7 11 -17 18 -22 15 -4 -3 -8 0 -8 7 0 7 -3 9 -7 6 -3 -4 -12 -2 -19 4 -7 6
-26 11 -43 11 -17 1 -31 4 -31 8 0 4 -32 6 -70 6 -39 -1 -70 2 -70 6 0 4 -6 5
-14 2 -26 -10 -196 -9 -200 1 -3 6 -5 5 -5 -1 -1 -7 -15 -10 -36 -7 l-36 4 3
-123 3 -123 25 -1 c14 -1 27 -2 30 -3 15 -7 39 -8 35 -2 -6 11 77 8 94 -3 9
-6 12 -5 8 1 -4 7 5 10 23 9 17 0 30 -5 30 -11 0 -5 4 -4 9 3 4 8 12 14 16 14
4 0 12 -6 16 -14 5 -7 9 -8 9 -2 0 6 7 11 15 11 8 0 15 -4 15 -9 0 -4 11 -8
25 -8 14 0 25 -5 25 -12 0 -6 3 -9 6 -5 15 15 113 -64 106 -85 -1 -5 6 -8 15
-8 9 0 14 -3 10 -6 -8 -9 75 -84 93 -84 6 0 10 -4 10 -8 0 -4 16 -9 37 -10 20
-2 40 -5 45 -8 4 -3 8 0 8 5 0 6 3 10 8 9 16 -5 81 35 102 62 13 16 27 27 31
24 5 -3 9 1 9 9 0 8 7 20 15 27 8 7 12 16 9 21 -3 5 -1 9 5 9 6 0 17 14 26 30
9 17 13 30 10 30 -4 0 1 7 9 16 9 8 16 22 16 30 0 8 4 14 10 14 5 0 9 3 8 8
-4 14 13 52 23 52 6 0 7 5 4 10 -3 6 -1 10 5 10 6 0 8 5 5 10 -3 6 -3 16 2 23
4 6 8 14 8 17 1 3 12 28 24 55 13 28 23 51 22 53 -2 2 5 15 14 29 12 17 13 23
4 17 -12 -6 -12 -5 0 9 7 9 10 17 7 17 -4 0 0 7 8 16 9 8 16 22 16 30 0 9 5
25 12 37 7 12 13 27 14 32 1 6 17 42 35 80 18 39 32 73 31 78 -1 4 3 7 8 7 6
0 10 7 10 15 0 8 7 15 16 15 8 0 12 -4 9 -10 -3 -5 -1 -10 5 -10 6 0 10 -8 8
-17 -2 -11 2 -17 10 -15 8 1 11 -2 7 -8 -4 -6 -2 -16 3 -23 7 -10 18 -39 27
-77 0 -3 6 -15 13 -27 7 -13 10 -23 6 -23 -3 0 0 -8 7 -17 12 -15 12 -16 -1
-8 -12 7 -13 6 -3 -6 6 -8 17 -34 24 -59 18 -64 20 -73 21 -87 1 -7 5 -13 9
-13 4 0 6 -9 4 -20 -2 -11 0 -20 5 -20 4 0 6 -9 3 -20 -3 -11 0 -20 6 -20 6 0
11 -13 11 -30 0 -17 5 -30 13 -30 8 0 7 -4 -3 -10 -12 -8 -12 -10 -1 -10 8 0
11 -3 8 -7 -4 -3 -2 -12 4 -20 6 -7 9 -13 6 -13 -3 0 1 -20 8 -44 8 -24 11
-47 8 -50 -4 -3 -2 -6 3 -6 9 0 13 -14 16 -57 1 -7 5 -13 9 -13 4 0 6 -9 4
-20 -2 -11 0 -22 6 -25 5 -4 9 -19 9 -34 0 -15 3 -31 8 -35 7 -7 8 -11 11 -37
0 -5 6 -7 13 -3 7 4 8 3 4 -5 -4 -6 -2 -19 6 -28 9 -12 9 -15 1 -9 -17 10 -16
1 2 -35 9 -16 13 -34 10 -39 -3 -6 -1 -10 5 -10 6 0 9 -4 5 -9 -3 -5 -1 -12 5
-16 6 -4 8 -11 5 -16 -4 -5 -2 -9 4 -9 6 0 8 -6 5 -14 -3 -8 0 -17 5 -21 6 -3
9 -11 6 -16 -4 -5 -1 -9 5 -9 6 0 9 -4 5 -9 -3 -5 2 -17 11 -25 8 -9 12 -16 8
-16 -3 0 0 -8 7 -17 12 -14 12 -16 -1 -9 -9 4 -8 1 3 -7 9 -8 17 -18 17 -23 0
-5 16 -23 35 -41 41 -38 97 -57 116 -39 7 7 10 7 6 0 -4 -8 3 -8 28 0 18 6 31
14 29 18 -3 4 2 8 10 8 8 0 20 8 25 18 6 9 11 13 11 9 0 -13 30 20 30 33 0 6
5 8 10 5 6 -3 10 1 10 10 0 8 7 18 15 21 8 4 13 10 10 14 -2 4 4 15 15 25 11
10 17 22 14 26 -3 5 0 9 5 9 6 0 11 6 11 14 0 8 7 21 15 30 9 8 16 17 16 18
-1 15 13 48 20 48 5 0 9 9 9 19 0 11 7 27 16 35 8 9 13 16 9 16 -3 0 0 10 7
22 6 13 13 29 14 37 2 8 9 18 16 22 7 5 9 9 4 9 -6 0 -5 5 1 11 6 6 9 18 6 27
-4 10 -2 13 5 8 11 -6 17 12 13 37 0 4 4 7 10 7 5 0 8 4 4 9 -3 5 -1 12 5 16
5 3 10 15 10 26 0 10 5 19 10 19 6 0 10 11 10 25 0 14 9 34 20 45 12 12 15 20
8 20 -8 0 -9 3 -3 8 15 11 39 56 25 47 -7 -4 -7 1 2 14 7 12 16 21 20 21 4 0
5 6 2 13 -2 7 4 22 16 32 12 11 20 13 20 6 0 -7 4 -9 10 -6 12 7 106 -63 103
-76 -2 -5 4 -9 13 -9 9 0 12 -5 8 -12 -4 -6 -3 -8 4 -4 6 3 19 -2 29 -12 25
-25 77 -57 68 -41 -6 8 -4 10 6 3 15 -9 33 -14 64 -17 11 -1 23 -6 27 -12 5
-6 8 -5 8 3 0 8 5 10 13 5 17 -11 51 -10 60 2 4 7 10 7 15 0 11 -15 46 -19 36
-4 -5 8 -3 10 7 3 18 -11 49 -11 72 -1 11 5 17 3 17 -4 0 -8 4 -8 15 1 10 8
15 9 15 1 0 -7 8 -8 25 -1 17 7 25 6 25 -1 0 -8 4 -8 14 0 10 9 16 9 21 1 5
-8 11 -8 21 1 11 9 14 9 14 0 0 -8 5 -9 19 -2 10 6 21 7 25 4 4 -4 5 49 4 117
l-3 124 -62 1 c-35 1 -63 -3 -63 -7 0 -5 -4 -6 -10 -3 -20 12 -50 14 -50 2 0
-8 -3 -8 -9 1 -9 14 -32 13 -43 -3 -5 -7 -8 -7 -8 0 0 6 -33 11 -76 12 -47 0
-79 6 -84 13 -4 6 -9 10 -12 8 -9 -6 -88 37 -88 50 0 6 -7 12 -16 12 -8 0 -12
5 -9 10 3 6 -1 10 -9 10 -8 0 -19 7 -24 16 -5 9 -13 17 -18 17 -5 1 -8 6 -6
11 2 5 -4 6 -13 3 -10 -4 -15 -1 -15 11 0 15 -2 15 -10 2 -6 -9 -10 -10 -10
-3 0 11 -31 21 -92 27 -15 2 -25 -1 -22 -5 3 -5 -7 -11 -21 -15 -14 -3 -35
-18 -46 -33 -11 -14 -24 -26 -27 -26 -4 0 -6 -3 -5 -7 2 -5 -2 -8 -8 -8 -5 0
-7 -4 -4 -10 3 -5 -1 -10 -10 -10 -9 0 -13 -4 -10 -10 3 -5 1 -10 -5 -10 -6 0
-9 -4 -6 -8 3 -5 -4 -18 -14 -30 -11 -12 -20 -24 -20 -28 0 -16 -34 -84 -43
-84 -4 0 -6 -4 -2 -9 3 -5 1 -12 -5 -16 -6 -4 -8 -11 -5 -16 4 -5 1 -9 -5 -9
-6 0 -9 -4 -5 -9 3 -5 1 -12 -5 -16 -6 -4 -8 -11 -5 -16 4 -5 2 -9 -3 -9 -6 0
-13 -7 -16 -16 -3 -9 -2 -12 5 -8 6 3 5 -3 -3 -15 -7 -12 -16 -21 -20 -21 -4
0 -5 -6 -2 -14 3 -7 -1 -20 -9 -27 -7 -8 -12 -20 -9 -27 2 -6 -1 -12 -8 -12
-6 0 -9 -4 -5 -9 3 -5 1 -12 -5 -16 -6 -4 -8 -11 -5 -16 4 -5 1 -9 -5 -9 -6 0
-8 -4 -5 -10 3 -5 2 -10 -4 -10 -6 0 -8 -7 -5 -15 4 -8 1 -15 -5 -15 -6 0 -10
-3 -9 -7 1 -5 -3 -18 -10 -31 -7 -12 -9 -22 -5 -22 4 0 2 -4 -5 -9 -12 -7 -18
-25 -21 -54 -1 -5 -6 -5 -13 -1 -6 4 -8 3 -5 -3 4 -6 0 -24 -8 -39 -8 -16 -15
-24 -16 -19 -1 6 -4 -1 -8 -15 -4 -14 -13 -24 -19 -23 -7 2 -11 -2 -9 -8 5
-24 -23 -19 -34 5 -7 14 -16 23 -20 20 -5 -3 -6 2 -3 10 3 9 1 16 -5 16 -6 0
-11 9 -11 20 0 11 -4 20 -9 20 -5 0 -8 8 -6 18 1 9 -7 32 -18 51 -11 19 -15
31 -8 27 8 -5 6 3 -4 18 -10 15 -15 29 -11 33 3 4 -1 17 -9 29 -8 13 -16 36
-17 51 -1 16 -6 30 -10 33 -4 3 -8 20 -10 38 -1 18 -6 32 -11 32 -4 0 -6 4 -2
9 3 5 1 12 -4 15 -5 4 -8 14 -7 24 2 9 0 19 -4 22 -5 3 -9 19 -11 35 -2 17 -8
36 -14 44 -8 11 -7 13 4 7 9 -6 8 0 -4 17 -9 14 -16 28 -16 31 1 4 1 7 0 9 0
1 -2 11 -4 22 -2 11 -6 31 -10 45 -4 14 -7 35 -8 47 -1 12 -5 19 -11 16 -5 -4
-7 3 -4 15 4 15 0 25 -10 32 -11 6 -12 10 -4 10 10 0 10 5 2 20 -6 11 -8 24
-5 29 3 5 1 11 -4 13 -6 1 -12 14 -15 28 -5 23 -8 36 -18 80 -1 8 -6 18 -10
21 -5 3 -9 17 -10 32 -1 15 -6 27 -11 27 -4 0 -5 5 -2 10 3 6 2 10 -4 10 -6 0
-8 7 -5 15 4 8 1 15 -6 15 -7 0 -10 7 -6 15 3 9 -1 18 -9 21 -8 4 -12 10 -9
15 3 6 -2 21 -10 34 -9 14 -13 25 -9 25 3 0 -4 12 -18 27 -13 14 -18 23 -12
19 9 -5 11 -2 7 8 -3 9 -9 16 -13 16 -3 0 -19 11 -34 25 -15 14 -27 23 -27 20
0 -3 -8 -1 -19 4 -10 6 -20 8 -22 6z"/>
</g>
</svg>
